<mxfile host="app.diagrams.net" agent="Mozilla/5.0 (Windows NT 10.0; Win64; x64) AppleWebKit/537.36 (KHTML, like Gecko) Chrome/130.0.0.0 Safari/537.36" version="24.8.4">
  <diagram name="Страница — 1" id="axzcmo0ZvVUuVzOqP3-f">
    <mxGraphModel dx="1185" dy="651" grid="1" gridSize="10" guides="1" tooltips="1" connect="1" arrows="1" fold="1" page="1" pageScale="1" pageWidth="827" pageHeight="1169" math="0" shadow="0">
      <root>
        <mxCell id="0" />
        <mxCell id="1" parent="0" />
        <mxCell id="FlyFxrjDseqyHdytKtgx-31" value="сбор информации" style="rounded=0;whiteSpace=wrap;html=1;" parent="1" vertex="1">
          <mxGeometry x="120" y="720" width="120" height="60" as="geometry" />
        </mxCell>
        <mxCell id="FlyFxrjDseqyHdytKtgx-54" style="edgeStyle=orthogonalEdgeStyle;rounded=0;orthogonalLoop=1;jettySize=auto;html=1;entryX=0.5;entryY=1;entryDx=0;entryDy=0;" parent="1" source="FlyFxrjDseqyHdytKtgx-32" target="FlyFxrjDseqyHdytKtgx-36" edge="1">
          <mxGeometry relative="1" as="geometry">
            <Array as="points">
              <mxPoint x="300" y="820" />
            </Array>
          </mxGeometry>
        </mxCell>
        <mxCell id="FlyFxrjDseqyHdytKtgx-32" value="выявление требований" style="rounded=0;whiteSpace=wrap;html=1;" parent="1" vertex="1">
          <mxGeometry x="120" y="800" width="120" height="30" as="geometry" />
        </mxCell>
        <mxCell id="FlyFxrjDseqyHdytKtgx-33" value="мозг штурм" style="rounded=1;whiteSpace=wrap;html=1;" parent="1" vertex="1">
          <mxGeometry x="240" y="720" width="120" height="30" as="geometry" />
        </mxCell>
        <mxCell id="FlyFxrjDseqyHdytKtgx-35" value="воркшоп" style="rounded=1;whiteSpace=wrap;html=1;" parent="1" vertex="1">
          <mxGeometry x="360" y="720" width="120" height="30" as="geometry" />
        </mxCell>
        <mxCell id="FlyFxrjDseqyHdytKtgx-55" value="проектирование" style="rounded=0;whiteSpace=wrap;html=1;" parent="1" vertex="1">
          <mxGeometry x="120" y="840" width="120" height="30" as="geometry" />
        </mxCell>
        <mxCell id="FlyFxrjDseqyHdytKtgx-56" value="реализация" style="rounded=0;whiteSpace=wrap;html=1;" parent="1" vertex="1">
          <mxGeometry x="120" y="880" width="120" height="30" as="geometry" />
        </mxCell>
        <mxCell id="FlyFxrjDseqyHdytKtgx-57" value="тестирование" style="rounded=0;whiteSpace=wrap;html=1;" parent="1" vertex="1">
          <mxGeometry x="120" y="920" width="120" height="30" as="geometry" />
        </mxCell>
        <mxCell id="FlyFxrjDseqyHdytKtgx-58" value="интеграция + поддержка" style="rounded=0;whiteSpace=wrap;html=1;" parent="1" vertex="1">
          <mxGeometry x="120" y="960" width="120" height="30" as="geometry" />
        </mxCell>
        <mxCell id="FlyFxrjDseqyHdytKtgx-59" value="owner (владелец)" style="rounded=0;whiteSpace=wrap;html=1;" parent="1" vertex="1">
          <mxGeometry x="360" y="485" width="120" height="40" as="geometry" />
        </mxCell>
        <mxCell id="FlyFxrjDseqyHdytKtgx-60" value="prod man. управляет проектом" style="rounded=0;whiteSpace=wrap;html=1;" parent="1" vertex="1">
          <mxGeometry x="360" y="525" width="120" height="40" as="geometry" />
        </mxCell>
        <mxCell id="FlyFxrjDseqyHdytKtgx-61" value="proj man. организация процессов" style="rounded=0;whiteSpace=wrap;html=1;" parent="1" vertex="1">
          <mxGeometry x="360" y="565" width="120" height="40" as="geometry" />
        </mxCell>
        <mxCell id="FlyFxrjDseqyHdytKtgx-62" value="БА сбор информ." style="rounded=0;whiteSpace=wrap;html=1;" parent="1" vertex="1">
          <mxGeometry x="120" y="565" width="120" height="40" as="geometry" />
        </mxCell>
        <mxCell id="FlyFxrjDseqyHdytKtgx-63" value="СА сбор информ + ТЗ" style="rounded=0;whiteSpace=wrap;html=1;" parent="1" vertex="1">
          <mxGeometry x="240" y="605" width="120" height="40" as="geometry" />
        </mxCell>
        <mxCell id="FlyFxrjDseqyHdytKtgx-64" value="архитектор" style="rounded=0;whiteSpace=wrap;html=1;" parent="1" vertex="1">
          <mxGeometry x="120" y="605" width="120" height="40" as="geometry" />
        </mxCell>
        <mxCell id="FlyFxrjDseqyHdytKtgx-65" value="team lead" style="rounded=0;whiteSpace=wrap;html=1;" parent="1" vertex="1">
          <mxGeometry x="240" y="565" width="120" height="40" as="geometry" />
        </mxCell>
        <mxCell id="FlyFxrjDseqyHdytKtgx-66" value="дизайнер" style="rounded=0;whiteSpace=wrap;html=1;" parent="1" vertex="1">
          <mxGeometry x="360" y="605" width="120" height="40" as="geometry" />
        </mxCell>
        <mxCell id="FlyFxrjDseqyHdytKtgx-67" value="бэк энд" style="rounded=0;whiteSpace=wrap;html=1;" parent="1" vertex="1">
          <mxGeometry x="240" y="645" width="120" height="40" as="geometry" />
        </mxCell>
        <mxCell id="FlyFxrjDseqyHdytKtgx-68" value="фронт энд" style="rounded=0;whiteSpace=wrap;html=1;" parent="1" vertex="1">
          <mxGeometry x="360" y="645" width="120" height="40" as="geometry" />
        </mxCell>
        <mxCell id="FlyFxrjDseqyHdytKtgx-69" value="тестер" style="rounded=0;whiteSpace=wrap;html=1;" parent="1" vertex="1">
          <mxGeometry x="120" y="645" width="120" height="40" as="geometry" />
        </mxCell>
        <mxCell id="FlyFxrjDseqyHdytKtgx-70" value="scrum master" style="rounded=0;whiteSpace=wrap;html=1;" parent="1" vertex="1">
          <mxGeometry x="480" y="565" width="120" height="40" as="geometry" />
        </mxCell>
        <mxCell id="FlyFxrjDseqyHdytKtgx-71" value="product" style="rounded=0;whiteSpace=wrap;html=1;verticalAlign=middle;horizontal=0;" parent="1" vertex="1">
          <mxGeometry x="60" y="480" width="20" height="520" as="geometry" />
        </mxCell>
        <mxCell id="st9Nu50ljxXsiS8LjL6p-48" value="глосарик" style="swimlane;fontStyle=0;childLayout=stackLayout;horizontal=1;startSize=30;horizontalStack=0;resizeParent=1;resizeParentMax=0;resizeLast=0;collapsible=1;marginBottom=0;whiteSpace=wrap;html=1;" parent="1" vertex="1" collapsed="1">
          <mxGeometry x="40" y="1020" width="120" height="30" as="geometry">
            <mxRectangle x="40" y="1020" width="280" height="150" as="alternateBounds" />
          </mxGeometry>
        </mxCell>
        <mxCell id="st9Nu50ljxXsiS8LjL6p-49" value="гетерогенность&amp;nbsp; - написание на разных языках" style="text;strokeColor=default;fillColor=default;align=left;verticalAlign=middle;spacingLeft=4;spacingRight=4;overflow=hidden;points=[[0,0.5],[1,0.5]];portConstraint=eastwest;rotatable=0;whiteSpace=wrap;html=1;" parent="st9Nu50ljxXsiS8LjL6p-48" vertex="1">
          <mxGeometry y="30" width="280" height="30" as="geometry" />
        </mxCell>
        <mxCell id="fMl_8oeA1-R9pS056J6B-14" value="принципы solid" style="swimlane;fontStyle=0;childLayout=stackLayout;horizontal=1;startSize=30;horizontalStack=0;resizeParent=1;resizeParentMax=0;resizeLast=0;collapsible=1;marginBottom=0;whiteSpace=wrap;html=1;" vertex="1" collapsed="1" parent="st9Nu50ljxXsiS8LjL6p-48">
          <mxGeometry y="60" width="280" height="30" as="geometry">
            <mxRectangle y="60" width="280" height="260" as="alternateBounds" />
          </mxGeometry>
        </mxCell>
        <mxCell id="fMl_8oeA1-R9pS056J6B-15" value="принцип единой ответственности (каждый класс имеет только одну зону ответственности)" style="text;strokeColor=default;fillColor=default;align=left;verticalAlign=middle;spacingLeft=4;spacingRight=4;overflow=hidden;points=[[0,0.5],[1,0.5]];portConstraint=eastwest;rotatable=0;whiteSpace=wrap;html=1;" vertex="1" parent="fMl_8oeA1-R9pS056J6B-14">
          <mxGeometry y="30" width="280" height="30" as="geometry" />
        </mxCell>
        <mxCell id="fMl_8oeA1-R9pS056J6B-16" value="принцип открытости/закрытости классы открыты для расширения , но закрыты для изменения" style="text;strokeColor=default;fillColor=default;align=left;verticalAlign=middle;spacingLeft=4;spacingRight=4;overflow=hidden;points=[[0,0.5],[1,0.5]];portConstraint=eastwest;rotatable=0;whiteSpace=wrap;html=1;" vertex="1" parent="fMl_8oeA1-R9pS056J6B-14">
          <mxGeometry y="60" width="280" height="50" as="geometry" />
        </mxCell>
        <mxCell id="fMl_8oeA1-R9pS056J6B-18" value="принцип разделения интерфейсов классы взаимодействуют только со своими интерфейсами" style="text;strokeColor=default;fillColor=default;align=left;verticalAlign=middle;spacingLeft=4;spacingRight=4;overflow=hidden;points=[[0,0.5],[1,0.5]];portConstraint=eastwest;rotatable=0;whiteSpace=wrap;html=1;" vertex="1" parent="fMl_8oeA1-R9pS056J6B-14">
          <mxGeometry y="110" width="280" height="50" as="geometry" />
        </mxCell>
        <mxCell id="fMl_8oeA1-R9pS056J6B-20" value="принцип заменяемости класс родитель должен быть заменяем детьми" style="text;strokeColor=default;fillColor=default;align=left;verticalAlign=middle;spacingLeft=4;spacingRight=4;overflow=hidden;points=[[0,0.5],[1,0.5]];portConstraint=eastwest;rotatable=0;whiteSpace=wrap;html=1;" vertex="1" parent="fMl_8oeA1-R9pS056J6B-14">
          <mxGeometry y="160" width="280" height="30" as="geometry" />
        </mxCell>
        <mxCell id="fMl_8oeA1-R9pS056J6B-19" value="принцип инверсии зависимостей абстракции не зависят от деталей, классы зависят от абстракций" style="text;strokeColor=default;fillColor=default;align=left;verticalAlign=middle;spacingLeft=4;spacingRight=4;overflow=hidden;points=[[0,0.5],[1,0.5]];portConstraint=eastwest;rotatable=0;whiteSpace=wrap;html=1;" vertex="1" parent="fMl_8oeA1-R9pS056J6B-14">
          <mxGeometry y="190" width="280" height="70" as="geometry" />
        </mxCell>
        <mxCell id="st9Nu50ljxXsiS8LjL6p-50" value="Item 2" style="text;strokeColor=default;fillColor=default;align=left;verticalAlign=middle;spacingLeft=4;spacingRight=4;overflow=hidden;points=[[0,0.5],[1,0.5]];portConstraint=eastwest;rotatable=0;whiteSpace=wrap;html=1;" parent="st9Nu50ljxXsiS8LjL6p-48" vertex="1">
          <mxGeometry y="90" width="280" height="30" as="geometry" />
        </mxCell>
        <mxCell id="st9Nu50ljxXsiS8LjL6p-51" value="Item 3" style="text;strokeColor=default;fillColor=default;align=left;verticalAlign=middle;spacingLeft=4;spacingRight=4;overflow=hidden;points=[[0,0.5],[1,0.5]];portConstraint=eastwest;rotatable=0;whiteSpace=wrap;html=1;" parent="st9Nu50ljxXsiS8LjL6p-48" vertex="1">
          <mxGeometry y="120" width="280" height="30" as="geometry" />
        </mxCell>
        <mxCell id="st9Nu50ljxXsiS8LjL6p-91" value="масштабирование" style="swimlane;fontStyle=0;childLayout=stackLayout;horizontal=1;startSize=30;horizontalStack=0;resizeParent=1;resizeParentMax=0;resizeLast=0;collapsible=1;marginBottom=0;whiteSpace=wrap;html=1;" parent="1" vertex="1" collapsed="1">
          <mxGeometry x="240" y="960" width="160" height="30" as="geometry">
            <mxRectangle x="240" y="960" width="160" height="130" as="alternateBounds" />
          </mxGeometry>
        </mxCell>
        <mxCell id="st9Nu50ljxXsiS8LjL6p-106" value="Вертикальное - увеличение мощности серверов" style="text;strokeColor=default;fillColor=default;align=left;verticalAlign=middle;spacingLeft=4;spacingRight=4;overflow=hidden;points=[[0,0.5],[1,0.5]];portConstraint=eastwest;rotatable=0;whiteSpace=wrap;html=1;" parent="st9Nu50ljxXsiS8LjL6p-91" vertex="1">
          <mxGeometry y="30" width="160" height="50" as="geometry" />
        </mxCell>
        <mxCell id="st9Nu50ljxXsiS8LjL6p-107" value="Горизонтальное - увеличение количества нод" style="text;strokeColor=default;fillColor=default;align=left;verticalAlign=middle;spacingLeft=4;spacingRight=4;overflow=hidden;points=[[0,0.5],[1,0.5]];portConstraint=eastwest;rotatable=0;whiteSpace=wrap;html=1;" parent="st9Nu50ljxXsiS8LjL6p-91" vertex="1">
          <mxGeometry y="80" width="160" height="50" as="geometry" />
        </mxCell>
        <mxCell id="FlyFxrjDseqyHdytKtgx-72" value="подходы к разработке" style="swimlane;fontStyle=0;childLayout=stackLayout;horizontal=1;startSize=30;horizontalStack=0;resizeParent=1;resizeParentMax=0;resizeLast=0;collapsible=1;marginBottom=0;whiteSpace=wrap;html=1;" parent="1" vertex="1" collapsed="1">
          <mxGeometry x="240" y="840" width="160" height="30" as="geometry">
            <mxRectangle x="240" y="840" width="160" height="700" as="alternateBounds" />
          </mxGeometry>
        </mxCell>
        <mxCell id="FlyFxrjDseqyHdytKtgx-76" value="waterfall" style="swimlane;fontStyle=0;childLayout=stackLayout;horizontal=1;startSize=30;horizontalStack=0;resizeParent=1;resizeParentMax=0;resizeLast=0;collapsible=1;marginBottom=0;whiteSpace=wrap;html=1;" parent="FlyFxrjDseqyHdytKtgx-72" vertex="1" collapsed="1">
          <mxGeometry y="30" width="160" height="30" as="geometry">
            <mxRectangle y="30" width="160" height="160" as="alternateBounds" />
          </mxGeometry>
        </mxCell>
        <mxCell id="FlyFxrjDseqyHdytKtgx-77" value="систематика и методичный подход" style="text;strokeColor=default;fillColor=default;align=left;verticalAlign=middle;spacingLeft=4;spacingRight=4;overflow=hidden;points=[[0,0.5],[1,0.5]];portConstraint=eastwest;rotatable=0;whiteSpace=wrap;html=1;" parent="FlyFxrjDseqyHdytKtgx-76" vertex="1">
          <mxGeometry y="30" width="160" height="40" as="geometry" />
        </mxCell>
        <mxCell id="FlyFxrjDseqyHdytKtgx-78" value="последовательность этапов разработки" style="text;strokeColor=default;fillColor=default;align=left;verticalAlign=middle;spacingLeft=4;spacingRight=4;overflow=hidden;points=[[0,0.5],[1,0.5]];portConstraint=eastwest;rotatable=0;whiteSpace=wrap;html=1;" parent="FlyFxrjDseqyHdytKtgx-76" vertex="1">
          <mxGeometry y="70" width="160" height="40" as="geometry" />
        </mxCell>
        <mxCell id="FlyFxrjDseqyHdytKtgx-79" value="невозможность вернуться к пред. этапам" style="text;strokeColor=default;fillColor=default;align=left;verticalAlign=middle;spacingLeft=4;spacingRight=4;overflow=hidden;points=[[0,0.5],[1,0.5]];portConstraint=eastwest;rotatable=0;whiteSpace=wrap;html=1;" parent="FlyFxrjDseqyHdytKtgx-76" vertex="1">
          <mxGeometry y="110" width="160" height="50" as="geometry" />
        </mxCell>
        <mxCell id="FlyFxrjDseqyHdytKtgx-80" value="agile" style="swimlane;fontStyle=0;childLayout=stackLayout;horizontal=1;startSize=30;horizontalStack=0;resizeParent=1;resizeParentMax=0;resizeLast=0;collapsible=1;marginBottom=0;whiteSpace=wrap;html=1;" parent="FlyFxrjDseqyHdytKtgx-72" vertex="1">
          <mxGeometry y="60" width="160" height="640" as="geometry">
            <mxRectangle y="190" width="160" height="30" as="alternateBounds" />
          </mxGeometry>
        </mxCell>
        <mxCell id="FlyFxrjDseqyHdytKtgx-81" value="гибкость, нацеленная на результат" style="text;strokeColor=default;fillColor=default;align=left;verticalAlign=middle;spacingLeft=4;spacingRight=4;overflow=hidden;points=[[0,0.5],[1,0.5]];portConstraint=eastwest;rotatable=0;whiteSpace=wrap;html=1;" parent="FlyFxrjDseqyHdytKtgx-80" vertex="1">
          <mxGeometry y="30" width="160" height="40" as="geometry" />
        </mxCell>
        <mxCell id="FlyFxrjDseqyHdytKtgx-82" value="короткие итерации разработки (частями продукта)" style="text;strokeColor=default;fillColor=default;align=left;verticalAlign=middle;spacingLeft=4;spacingRight=4;overflow=hidden;points=[[0,0.5],[1,0.5]];portConstraint=eastwest;rotatable=0;whiteSpace=wrap;html=1;" parent="FlyFxrjDseqyHdytKtgx-80" vertex="1">
          <mxGeometry y="70" width="160" height="60" as="geometry" />
        </mxCell>
        <mxCell id="FlyFxrjDseqyHdytKtgx-84" value="scrum" style="swimlane;fontStyle=0;childLayout=stackLayout;horizontal=1;startSize=30;horizontalStack=0;resizeParent=1;resizeParentMax=0;resizeLast=0;collapsible=1;marginBottom=0;whiteSpace=wrap;html=1;" parent="FlyFxrjDseqyHdytKtgx-80" vertex="1">
          <mxGeometry y="130" width="160" height="430" as="geometry">
            <mxRectangle y="130" width="160" height="30" as="alternateBounds" />
          </mxGeometry>
        </mxCell>
        <mxCell id="FlyFxrjDseqyHdytKtgx-85" value="подразумевает наличие scrum мастера (ритуалы)" style="text;strokeColor=default;fillColor=default;align=left;verticalAlign=middle;spacingLeft=4;spacingRight=4;overflow=hidden;points=[[0,0.5],[1,0.5]];portConstraint=eastwest;rotatable=0;whiteSpace=wrap;html=1;" parent="FlyFxrjDseqyHdytKtgx-84" vertex="1">
          <mxGeometry y="30" width="160" height="30" as="geometry" />
        </mxCell>
        <mxCell id="FlyFxrjDseqyHdytKtgx-86" value="гибкость и результативность (работа по спринтам)" style="text;strokeColor=default;fillColor=default;align=left;verticalAlign=middle;spacingLeft=4;spacingRight=4;overflow=hidden;points=[[0,0.5],[1,0.5]];portConstraint=eastwest;rotatable=0;whiteSpace=wrap;html=1;" parent="FlyFxrjDseqyHdytKtgx-84" vertex="1">
          <mxGeometry y="60" width="160" height="30" as="geometry" />
        </mxCell>
        <mxCell id="FlyFxrjDseqyHdytKtgx-102" value="вовлеченность заказчика и команды" style="text;strokeColor=default;fillColor=default;align=left;verticalAlign=middle;spacingLeft=4;spacingRight=4;overflow=hidden;points=[[0,0.5],[1,0.5]];portConstraint=eastwest;rotatable=0;whiteSpace=wrap;html=1;" parent="FlyFxrjDseqyHdytKtgx-84" vertex="1">
          <mxGeometry y="90" width="160" height="30" as="geometry" />
        </mxCell>
        <mxCell id="FlyFxrjDseqyHdytKtgx-87" value="использование скрам доски (с разделением задач в спринте)" style="text;strokeColor=default;fillColor=default;align=left;verticalAlign=middle;spacingLeft=4;spacingRight=4;overflow=hidden;points=[[0,0.5],[1,0.5]];portConstraint=eastwest;rotatable=0;whiteSpace=wrap;html=1;" parent="FlyFxrjDseqyHdytKtgx-84" vertex="1">
          <mxGeometry y="120" width="160" height="50" as="geometry" />
        </mxCell>
        <mxCell id="FlyFxrjDseqyHdytKtgx-97" value="ритуалы" style="swimlane;fontStyle=0;childLayout=stackLayout;horizontal=1;startSize=30;horizontalStack=0;resizeParent=1;resizeParentMax=0;resizeLast=0;collapsible=1;marginBottom=0;whiteSpace=wrap;html=1;" parent="FlyFxrjDseqyHdytKtgx-84" vertex="1">
          <mxGeometry y="170" width="160" height="260" as="geometry">
            <mxRectangle y="170" width="160" height="30" as="alternateBounds" />
          </mxGeometry>
        </mxCell>
        <mxCell id="FlyFxrjDseqyHdytKtgx-98" value="scrum planning планирование спринта" style="text;strokeColor=default;fillColor=default;align=left;verticalAlign=middle;spacingLeft=4;spacingRight=4;overflow=hidden;points=[[0,0.5],[1,0.5]];portConstraint=eastwest;rotatable=0;whiteSpace=wrap;html=1;" parent="FlyFxrjDseqyHdytKtgx-97" vertex="1">
          <mxGeometry y="30" width="160" height="60" as="geometry" />
        </mxCell>
        <mxCell id="FlyFxrjDseqyHdytKtgx-99" value="daily scrum ежедневная отчетность (что, как, почему)" style="text;strokeColor=default;fillColor=default;align=left;verticalAlign=middle;spacingLeft=4;spacingRight=4;overflow=hidden;points=[[0,0.5],[1,0.5]];portConstraint=eastwest;rotatable=0;whiteSpace=wrap;html=1;" parent="FlyFxrjDseqyHdytKtgx-97" vertex="1">
          <mxGeometry y="90" width="160" height="70" as="geometry" />
        </mxCell>
        <mxCell id="FlyFxrjDseqyHdytKtgx-100" value="sprint review обзор задач после спринта" style="text;strokeColor=default;fillColor=default;align=left;verticalAlign=middle;spacingLeft=4;spacingRight=4;overflow=hidden;points=[[0,0.5],[1,0.5]];portConstraint=eastwest;rotatable=0;whiteSpace=wrap;html=1;" parent="FlyFxrjDseqyHdytKtgx-97" vertex="1">
          <mxGeometry y="160" width="160" height="40" as="geometry" />
        </mxCell>
        <mxCell id="FlyFxrjDseqyHdytKtgx-101" value="sprint retrospective обзор по организации в конце спринта" style="text;strokeColor=default;fillColor=default;align=left;verticalAlign=middle;spacingLeft=4;spacingRight=4;overflow=hidden;points=[[0,0.5],[1,0.5]];portConstraint=eastwest;rotatable=0;whiteSpace=wrap;html=1;" parent="FlyFxrjDseqyHdytKtgx-97" vertex="1">
          <mxGeometry y="200" width="160" height="60" as="geometry" />
        </mxCell>
        <mxCell id="FlyFxrjDseqyHdytKtgx-88" value="канбан" style="swimlane;fontStyle=0;childLayout=stackLayout;horizontal=1;startSize=30;horizontalStack=0;resizeParent=1;resizeParentMax=0;resizeLast=0;collapsible=1;marginBottom=0;whiteSpace=wrap;html=1;" parent="FlyFxrjDseqyHdytKtgx-80" vertex="1">
          <mxGeometry y="560" width="160" height="80" as="geometry">
            <mxRectangle y="560" width="160" height="30" as="alternateBounds" />
          </mxGeometry>
        </mxCell>
        <mxCell id="FlyFxrjDseqyHdytKtgx-89" value="визуализация процесса выполнения задачи" style="text;strokeColor=default;fillColor=default;align=left;verticalAlign=middle;spacingLeft=4;spacingRight=4;overflow=hidden;points=[[0,0.5],[1,0.5]];portConstraint=eastwest;rotatable=0;whiteSpace=wrap;html=1;" parent="FlyFxrjDseqyHdytKtgx-88" vertex="1">
          <mxGeometry y="30" width="160" height="50" as="geometry" />
        </mxCell>
        <mxCell id="fMl_8oeA1-R9pS056J6B-23" value="техническое задание" style="swimlane;whiteSpace=wrap;html=1;" vertex="1" collapsed="1" parent="1">
          <mxGeometry x="570" y="840" width="160" height="30" as="geometry">
            <mxRectangle x="570" y="840" width="380" height="400" as="alternateBounds" />
          </mxGeometry>
        </mxCell>
        <mxCell id="fMl_8oeA1-R9pS056J6B-24" value="" style="rounded=0;whiteSpace=wrap;html=1;strokeColor=default;" vertex="1" parent="fMl_8oeA1-R9pS056J6B-23">
          <mxGeometry y="20" width="380" height="380" as="geometry" />
        </mxCell>
        <mxCell id="fMl_8oeA1-R9pS056J6B-75" value="нф требования" style="swimlane;fontStyle=0;childLayout=stackLayout;horizontal=1;startSize=30;horizontalStack=0;resizeParent=1;resizeParentMax=0;resizeLast=0;collapsible=1;marginBottom=0;whiteSpace=wrap;html=1;" vertex="1" collapsed="1" parent="fMl_8oeA1-R9pS056J6B-23">
          <mxGeometry x="220" y="25" width="130" height="30" as="geometry">
            <mxRectangle x="220" y="25" width="140" height="300" as="alternateBounds" />
          </mxGeometry>
        </mxCell>
        <mxCell id="fMl_8oeA1-R9pS056J6B-76" value="безопасность" style="text;strokeColor=default;fillColor=default;align=left;verticalAlign=middle;spacingLeft=4;spacingRight=4;overflow=hidden;points=[[0,0.5],[1,0.5]];portConstraint=eastwest;rotatable=0;whiteSpace=wrap;html=1;" vertex="1" parent="fMl_8oeA1-R9pS056J6B-75">
          <mxGeometry y="30" width="140" height="30" as="geometry" />
        </mxCell>
        <mxCell id="fMl_8oeA1-R9pS056J6B-77" value="производительность" style="text;strokeColor=default;fillColor=default;align=left;verticalAlign=middle;spacingLeft=4;spacingRight=4;overflow=hidden;points=[[0,0.5],[1,0.5]];portConstraint=eastwest;rotatable=0;whiteSpace=wrap;html=1;" vertex="1" parent="fMl_8oeA1-R9pS056J6B-75">
          <mxGeometry y="60" width="140" height="30" as="geometry" />
        </mxCell>
        <mxCell id="fMl_8oeA1-R9pS056J6B-79" value="масштабируемость" style="text;strokeColor=default;fillColor=default;align=left;verticalAlign=middle;spacingLeft=4;spacingRight=4;overflow=hidden;points=[[0,0.5],[1,0.5]];portConstraint=eastwest;rotatable=0;whiteSpace=wrap;html=1;" vertex="1" parent="fMl_8oeA1-R9pS056J6B-75">
          <mxGeometry y="90" width="140" height="30" as="geometry" />
        </mxCell>
        <mxCell id="fMl_8oeA1-R9pS056J6B-81" value="доступность" style="text;strokeColor=default;fillColor=default;align=left;verticalAlign=middle;spacingLeft=4;spacingRight=4;overflow=hidden;points=[[0,0.5],[1,0.5]];portConstraint=eastwest;rotatable=0;whiteSpace=wrap;html=1;" vertex="1" parent="fMl_8oeA1-R9pS056J6B-75">
          <mxGeometry y="120" width="140" height="30" as="geometry" />
        </mxCell>
        <mxCell id="fMl_8oeA1-R9pS056J6B-84" value="надежность" style="text;strokeColor=default;fillColor=default;align=left;verticalAlign=middle;spacingLeft=4;spacingRight=4;overflow=hidden;points=[[0,0.5],[1,0.5]];portConstraint=eastwest;rotatable=0;whiteSpace=wrap;html=1;" vertex="1" parent="fMl_8oeA1-R9pS056J6B-75">
          <mxGeometry y="150" width="140" height="30" as="geometry" />
        </mxCell>
        <mxCell id="fMl_8oeA1-R9pS056J6B-83" value="переносимость" style="text;strokeColor=default;fillColor=default;align=left;verticalAlign=middle;spacingLeft=4;spacingRight=4;overflow=hidden;points=[[0,0.5],[1,0.5]];portConstraint=eastwest;rotatable=0;whiteSpace=wrap;html=1;" vertex="1" parent="fMl_8oeA1-R9pS056J6B-75">
          <mxGeometry y="180" width="140" height="30" as="geometry" />
        </mxCell>
        <mxCell id="fMl_8oeA1-R9pS056J6B-82" value="Юр. вопросы" style="text;strokeColor=default;fillColor=default;align=left;verticalAlign=middle;spacingLeft=4;spacingRight=4;overflow=hidden;points=[[0,0.5],[1,0.5]];portConstraint=eastwest;rotatable=0;whiteSpace=wrap;html=1;" vertex="1" parent="fMl_8oeA1-R9pS056J6B-75">
          <mxGeometry y="210" width="140" height="30" as="geometry" />
        </mxCell>
        <mxCell id="fMl_8oeA1-R9pS056J6B-80" value="Совместимость" style="text;strokeColor=default;fillColor=default;align=left;verticalAlign=middle;spacingLeft=4;spacingRight=4;overflow=hidden;points=[[0,0.5],[1,0.5]];portConstraint=eastwest;rotatable=0;whiteSpace=wrap;html=1;" vertex="1" parent="fMl_8oeA1-R9pS056J6B-75">
          <mxGeometry y="240" width="140" height="30" as="geometry" />
        </mxCell>
        <mxCell id="fMl_8oeA1-R9pS056J6B-78" value="Юзабилити" style="text;strokeColor=default;fillColor=default;align=left;verticalAlign=middle;spacingLeft=4;spacingRight=4;overflow=hidden;points=[[0,0.5],[1,0.5]];portConstraint=eastwest;rotatable=0;whiteSpace=wrap;html=1;" vertex="1" parent="fMl_8oeA1-R9pS056J6B-75">
          <mxGeometry y="270" width="140" height="30" as="geometry" />
        </mxCell>
        <mxCell id="fMl_8oeA1-R9pS056J6B-85" value="виды требований" style="swimlane;fontStyle=0;childLayout=stackLayout;horizontal=1;startSize=30;horizontalStack=0;resizeParent=1;resizeParentMax=0;resizeLast=0;collapsible=1;marginBottom=0;whiteSpace=wrap;html=1;" vertex="1" collapsed="1" parent="fMl_8oeA1-R9pS056J6B-23">
          <mxGeometry y="70" width="140" height="30" as="geometry">
            <mxRectangle y="70" width="140" height="250" as="alternateBounds" />
          </mxGeometry>
        </mxCell>
        <mxCell id="fMl_8oeA1-R9pS056J6B-86" value="бизнес требования" style="text;strokeColor=default;fillColor=default;align=left;verticalAlign=middle;spacingLeft=4;spacingRight=4;overflow=hidden;points=[[0,0.5],[1,0.5]];portConstraint=eastwest;rotatable=0;whiteSpace=wrap;html=1;" vertex="1" parent="fMl_8oeA1-R9pS056J6B-85">
          <mxGeometry y="30" width="140" height="50" as="geometry" />
        </mxCell>
        <mxCell id="fMl_8oeA1-R9pS056J6B-87" value="требования заинт сторон (внешние)" style="text;strokeColor=default;fillColor=default;align=left;verticalAlign=middle;spacingLeft=4;spacingRight=4;overflow=hidden;points=[[0,0.5],[1,0.5]];portConstraint=eastwest;rotatable=0;whiteSpace=wrap;html=1;" vertex="1" parent="fMl_8oeA1-R9pS056J6B-85">
          <mxGeometry y="80" width="140" height="50" as="geometry" />
        </mxCell>
        <mxCell id="fMl_8oeA1-R9pS056J6B-88" value="требования к решениям (внутренние)" style="text;strokeColor=default;fillColor=default;align=left;verticalAlign=middle;spacingLeft=4;spacingRight=4;overflow=hidden;points=[[0,0.5],[1,0.5]];portConstraint=eastwest;rotatable=0;whiteSpace=wrap;html=1;" vertex="1" parent="fMl_8oeA1-R9pS056J6B-85">
          <mxGeometry y="130" width="140" height="60" as="geometry" />
        </mxCell>
        <mxCell id="fMl_8oeA1-R9pS056J6B-89" value="пользовательские требования (требования пользователей)" style="text;strokeColor=default;fillColor=default;align=left;verticalAlign=middle;spacingLeft=4;spacingRight=4;overflow=hidden;points=[[0,0.5],[1,0.5]];portConstraint=eastwest;rotatable=0;whiteSpace=wrap;html=1;" vertex="1" parent="fMl_8oeA1-R9pS056J6B-85">
          <mxGeometry y="190" width="140" height="60" as="geometry" />
        </mxCell>
        <mxCell id="fMl_8oeA1-R9pS056J6B-51" value="виды ТЗ" style="swimlane;fontStyle=0;childLayout=stackLayout;horizontal=1;startSize=30;horizontalStack=0;resizeParent=1;resizeParentMax=0;resizeLast=0;collapsible=1;marginBottom=0;whiteSpace=wrap;html=1;" vertex="1" collapsed="1" parent="fMl_8oeA1-R9pS056J6B-23">
          <mxGeometry x="110" y="25" width="90" height="30" as="geometry">
            <mxRectangle x="110" y="25" width="180" height="180" as="alternateBounds" />
          </mxGeometry>
        </mxCell>
        <mxCell id="fMl_8oeA1-R9pS056J6B-71" value="на добавление нового ф-ла" style="swimlane;fontStyle=0;childLayout=stackLayout;horizontal=1;startSize=30;horizontalStack=0;resizeParent=1;resizeParentMax=0;resizeLast=0;collapsible=1;marginBottom=0;whiteSpace=wrap;html=1;" vertex="1" collapsed="1" parent="fMl_8oeA1-R9pS056J6B-51">
          <mxGeometry y="30" width="180" height="30" as="geometry">
            <mxRectangle y="30" width="180" height="120" as="alternateBounds" />
          </mxGeometry>
        </mxCell>
        <mxCell id="fMl_8oeA1-R9pS056J6B-72" value="функц. требования" style="text;strokeColor=default;fillColor=default;align=left;verticalAlign=middle;spacingLeft=4;spacingRight=4;overflow=hidden;points=[[0,0.5],[1,0.5]];portConstraint=eastwest;rotatable=0;whiteSpace=wrap;html=1;" vertex="1" parent="fMl_8oeA1-R9pS056J6B-71">
          <mxGeometry y="30" width="180" height="30" as="geometry" />
        </mxCell>
        <mxCell id="fMl_8oeA1-R9pS056J6B-73" value="не функци. требования" style="text;strokeColor=default;fillColor=default;align=left;verticalAlign=middle;spacingLeft=4;spacingRight=4;overflow=hidden;points=[[0,0.5],[1,0.5]];portConstraint=eastwest;rotatable=0;whiteSpace=wrap;html=1;" vertex="1" parent="fMl_8oeA1-R9pS056J6B-71">
          <mxGeometry y="60" width="180" height="30" as="geometry" />
        </mxCell>
        <mxCell id="fMl_8oeA1-R9pS056J6B-74" value="требования к интерфейсу" style="text;strokeColor=default;fillColor=default;align=left;verticalAlign=middle;spacingLeft=4;spacingRight=4;overflow=hidden;points=[[0,0.5],[1,0.5]];portConstraint=eastwest;rotatable=0;whiteSpace=wrap;html=1;" vertex="1" parent="fMl_8oeA1-R9pS056J6B-71">
          <mxGeometry y="90" width="180" height="30" as="geometry" />
        </mxCell>
        <mxCell id="fMl_8oeA1-R9pS056J6B-67" value="на исправление дефекта" style="swimlane;fontStyle=0;childLayout=stackLayout;horizontal=1;startSize=30;horizontalStack=0;resizeParent=1;resizeParentMax=0;resizeLast=0;collapsible=1;marginBottom=0;whiteSpace=wrap;html=1;" vertex="1" collapsed="1" parent="fMl_8oeA1-R9pS056J6B-51">
          <mxGeometry y="60" width="180" height="30" as="geometry">
            <mxRectangle y="60" width="140" height="120" as="alternateBounds" />
          </mxGeometry>
        </mxCell>
        <mxCell id="fMl_8oeA1-R9pS056J6B-68" value="как работает сейчас" style="text;strokeColor=default;fillColor=default;align=left;verticalAlign=middle;spacingLeft=4;spacingRight=4;overflow=hidden;points=[[0,0.5],[1,0.5]];portConstraint=eastwest;rotatable=0;whiteSpace=wrap;html=1;" vertex="1" parent="fMl_8oeA1-R9pS056J6B-67">
          <mxGeometry y="30" width="140" height="30" as="geometry" />
        </mxCell>
        <mxCell id="fMl_8oeA1-R9pS056J6B-69" value="как воспроизвести" style="text;strokeColor=default;fillColor=default;align=left;verticalAlign=middle;spacingLeft=4;spacingRight=4;overflow=hidden;points=[[0,0.5],[1,0.5]];portConstraint=eastwest;rotatable=0;whiteSpace=wrap;html=1;" vertex="1" parent="fMl_8oeA1-R9pS056J6B-67">
          <mxGeometry y="60" width="140" height="30" as="geometry" />
        </mxCell>
        <mxCell id="fMl_8oeA1-R9pS056J6B-70" value="как должно работать" style="text;strokeColor=default;fillColor=default;align=left;verticalAlign=middle;spacingLeft=4;spacingRight=4;overflow=hidden;points=[[0,0.5],[1,0.5]];portConstraint=eastwest;rotatable=0;whiteSpace=wrap;html=1;" vertex="1" parent="fMl_8oeA1-R9pS056J6B-67">
          <mxGeometry y="90" width="140" height="30" as="geometry" />
        </mxCell>
        <mxCell id="fMl_8oeA1-R9pS056J6B-55" value="на интеграцию" style="swimlane;fontStyle=0;childLayout=stackLayout;horizontal=1;startSize=30;horizontalStack=0;resizeParent=1;resizeParentMax=0;resizeLast=0;collapsible=1;marginBottom=0;whiteSpace=wrap;html=1;" vertex="1" collapsed="1" parent="fMl_8oeA1-R9pS056J6B-51">
          <mxGeometry y="90" width="180" height="30" as="geometry">
            <mxRectangle x="910" y="1100" width="140" height="120" as="alternateBounds" />
          </mxGeometry>
        </mxCell>
        <mxCell id="fMl_8oeA1-R9pS056J6B-56" value="откуда брать данные и какие" style="text;strokeColor=default;fillColor=default;align=left;verticalAlign=middle;spacingLeft=4;spacingRight=4;overflow=hidden;points=[[0,0.5],[1,0.5]];portConstraint=eastwest;rotatable=0;whiteSpace=wrap;html=1;" vertex="1" parent="fMl_8oeA1-R9pS056J6B-55">
          <mxGeometry y="30" width="140" height="30" as="geometry" />
        </mxCell>
        <mxCell id="fMl_8oeA1-R9pS056J6B-57" value="как их преобразовать" style="text;strokeColor=default;fillColor=default;align=left;verticalAlign=middle;spacingLeft=4;spacingRight=4;overflow=hidden;points=[[0,0.5],[1,0.5]];portConstraint=eastwest;rotatable=0;whiteSpace=wrap;html=1;" vertex="1" parent="fMl_8oeA1-R9pS056J6B-55">
          <mxGeometry y="60" width="140" height="30" as="geometry" />
        </mxCell>
        <mxCell id="fMl_8oeA1-R9pS056J6B-58" value="куда их записать" style="text;strokeColor=default;fillColor=default;align=left;verticalAlign=middle;spacingLeft=4;spacingRight=4;overflow=hidden;points=[[0,0.5],[1,0.5]];portConstraint=eastwest;rotatable=0;whiteSpace=wrap;html=1;" vertex="1" parent="fMl_8oeA1-R9pS056J6B-55">
          <mxGeometry y="90" width="140" height="30" as="geometry" />
        </mxCell>
        <mxCell id="fMl_8oeA1-R9pS056J6B-63" value="на тестирование" style="swimlane;fontStyle=0;childLayout=stackLayout;horizontal=1;startSize=30;horizontalStack=0;resizeParent=1;resizeParentMax=0;resizeLast=0;collapsible=1;marginBottom=0;whiteSpace=wrap;html=1;" vertex="1" collapsed="1" parent="fMl_8oeA1-R9pS056J6B-51">
          <mxGeometry y="120" width="180" height="30" as="geometry">
            <mxRectangle y="120" width="180" height="120" as="alternateBounds" />
          </mxGeometry>
        </mxCell>
        <mxCell id="fMl_8oeA1-R9pS056J6B-64" value="функц. и входные данные" style="text;strokeColor=default;fillColor=default;align=left;verticalAlign=middle;spacingLeft=4;spacingRight=4;overflow=hidden;points=[[0,0.5],[1,0.5]];portConstraint=eastwest;rotatable=0;whiteSpace=wrap;html=1;" vertex="1" parent="fMl_8oeA1-R9pS056J6B-63">
          <mxGeometry y="30" width="180" height="30" as="geometry" />
        </mxCell>
        <mxCell id="fMl_8oeA1-R9pS056J6B-65" value="тест стратегия и описание кейсов" style="text;strokeColor=#b85450;fillColor=#f8cecc;align=left;verticalAlign=middle;spacingLeft=4;spacingRight=4;overflow=hidden;points=[[0,0.5],[1,0.5]];portConstraint=eastwest;rotatable=0;whiteSpace=wrap;html=1;" vertex="1" parent="fMl_8oeA1-R9pS056J6B-63">
          <mxGeometry y="60" width="180" height="30" as="geometry" />
        </mxCell>
        <mxCell id="fMl_8oeA1-R9pS056J6B-66" value="критерии приемки" style="text;strokeColor=default;fillColor=default;align=left;verticalAlign=middle;spacingLeft=4;spacingRight=4;overflow=hidden;points=[[0,0.5],[1,0.5]];portConstraint=eastwest;rotatable=0;whiteSpace=wrap;html=1;" vertex="1" parent="fMl_8oeA1-R9pS056J6B-63">
          <mxGeometry y="90" width="180" height="30" as="geometry" />
        </mxCell>
        <mxCell id="fMl_8oeA1-R9pS056J6B-59" value="на дизайн" style="swimlane;fontStyle=0;childLayout=stackLayout;horizontal=1;startSize=30;horizontalStack=0;resizeParent=1;resizeParentMax=0;resizeLast=0;collapsible=1;marginBottom=0;whiteSpace=wrap;html=1;" vertex="1" collapsed="1" parent="fMl_8oeA1-R9pS056J6B-51">
          <mxGeometry y="150" width="180" height="30" as="geometry">
            <mxRectangle y="150" width="180" height="120" as="alternateBounds" />
          </mxGeometry>
        </mxCell>
        <mxCell id="fMl_8oeA1-R9pS056J6B-60" value="цели и требования" style="text;strokeColor=default;fillColor=default;align=left;verticalAlign=middle;spacingLeft=4;spacingRight=4;overflow=hidden;points=[[0,0.5],[1,0.5]];portConstraint=eastwest;rotatable=0;whiteSpace=wrap;html=1;" vertex="1" parent="fMl_8oeA1-R9pS056J6B-59">
          <mxGeometry y="30" width="180" height="30" as="geometry" />
        </mxCell>
        <mxCell id="fMl_8oeA1-R9pS056J6B-61" value="основные элементы , цвета и стили" style="text;strokeColor=default;fillColor=default;align=left;verticalAlign=middle;spacingLeft=4;spacingRight=4;overflow=hidden;points=[[0,0.5],[1,0.5]];portConstraint=eastwest;rotatable=0;whiteSpace=wrap;html=1;" vertex="1" parent="fMl_8oeA1-R9pS056J6B-59">
          <mxGeometry y="60" width="180" height="30" as="geometry" />
        </mxCell>
        <mxCell id="fMl_8oeA1-R9pS056J6B-62" value="требования&amp;nbsp; к доступности и адаптивности" style="text;strokeColor=default;fillColor=default;align=left;verticalAlign=middle;spacingLeft=4;spacingRight=4;overflow=hidden;points=[[0,0.5],[1,0.5]];portConstraint=eastwest;rotatable=0;whiteSpace=wrap;html=1;" vertex="1" parent="fMl_8oeA1-R9pS056J6B-59">
          <mxGeometry y="90" width="180" height="30" as="geometry" />
        </mxCell>
        <mxCell id="fMl_8oeA1-R9pS056J6B-25" value="структура" style="swimlane;fontStyle=0;childLayout=stackLayout;horizontal=1;startSize=30;horizontalStack=0;resizeParent=1;resizeParentMax=0;resizeLast=0;collapsible=1;marginBottom=0;whiteSpace=wrap;html=1;" vertex="1" collapsed="1" parent="fMl_8oeA1-R9pS056J6B-23">
          <mxGeometry y="25" width="90" height="30" as="geometry">
            <mxRectangle y="25" width="250" height="240" as="alternateBounds" />
          </mxGeometry>
        </mxCell>
        <mxCell id="fMl_8oeA1-R9pS056J6B-26" value="цель" style="text;strokeColor=default;fillColor=default;align=left;verticalAlign=middle;spacingLeft=4;spacingRight=4;overflow=hidden;points=[[0,0.5],[1,0.5]];portConstraint=eastwest;rotatable=0;whiteSpace=wrap;html=1;" vertex="1" parent="fMl_8oeA1-R9pS056J6B-25">
          <mxGeometry y="30" width="250" height="30" as="geometry" />
        </mxCell>
        <mxCell id="fMl_8oeA1-R9pS056J6B-30" value="история изменений" style="text;strokeColor=default;fillColor=default;align=left;verticalAlign=middle;spacingLeft=4;spacingRight=4;overflow=hidden;points=[[0,0.5],[1,0.5]];portConstraint=eastwest;rotatable=0;whiteSpace=wrap;html=1;" vertex="1" parent="fMl_8oeA1-R9pS056J6B-25">
          <mxGeometry y="60" width="250" height="30" as="geometry" />
        </mxCell>
        <mxCell id="fMl_8oeA1-R9pS056J6B-40" value="критерии к приемке" style="text;strokeColor=default;fillColor=default;align=left;verticalAlign=middle;spacingLeft=4;spacingRight=4;overflow=hidden;points=[[0,0.5],[1,0.5]];portConstraint=eastwest;rotatable=0;whiteSpace=wrap;html=1;" vertex="1" parent="fMl_8oeA1-R9pS056J6B-25">
          <mxGeometry y="90" width="250" height="30" as="geometry" />
        </mxCell>
        <mxCell id="fMl_8oeA1-R9pS056J6B-31" value="юзер стори" style="text;strokeColor=default;fillColor=default;align=left;verticalAlign=middle;spacingLeft=4;spacingRight=4;overflow=hidden;points=[[0,0.5],[1,0.5]];portConstraint=eastwest;rotatable=0;whiteSpace=wrap;html=1;" vertex="1" parent="fMl_8oeA1-R9pS056J6B-25">
          <mxGeometry y="120" width="250" height="30" as="geometry" />
        </mxCell>
        <mxCell id="fMl_8oeA1-R9pS056J6B-36" value="функциональные требования" style="swimlane;fontStyle=0;childLayout=stackLayout;horizontal=1;startSize=30;horizontalStack=0;resizeParent=1;resizeParentMax=0;resizeLast=0;collapsible=1;marginBottom=0;whiteSpace=wrap;html=1;" vertex="1" collapsed="1" parent="fMl_8oeA1-R9pS056J6B-25">
          <mxGeometry y="150" width="250" height="30" as="geometry">
            <mxRectangle y="150" width="250" height="180" as="alternateBounds" />
          </mxGeometry>
        </mxCell>
        <mxCell id="fMl_8oeA1-R9pS056J6B-37" value="требования к разработке" style="text;strokeColor=default;fillColor=default;align=left;verticalAlign=middle;spacingLeft=4;spacingRight=4;overflow=hidden;points=[[0,0.5],[1,0.5]];portConstraint=eastwest;rotatable=0;whiteSpace=wrap;html=1;" vertex="1" parent="fMl_8oeA1-R9pS056J6B-36">
          <mxGeometry y="30" width="250" height="30" as="geometry" />
        </mxCell>
        <mxCell id="fMl_8oeA1-R9pS056J6B-38" value="модель as is / to be" style="text;strokeColor=default;fillColor=default;align=left;verticalAlign=middle;spacingLeft=4;spacingRight=4;overflow=hidden;points=[[0,0.5],[1,0.5]];portConstraint=eastwest;rotatable=0;whiteSpace=wrap;html=1;" vertex="1" parent="fMl_8oeA1-R9pS056J6B-36">
          <mxGeometry y="60" width="250" height="30" as="geometry" />
        </mxCell>
        <mxCell id="fMl_8oeA1-R9pS056J6B-45" value="требования к реализации" style="swimlane;fontStyle=0;childLayout=stackLayout;horizontal=1;startSize=30;horizontalStack=0;resizeParent=1;resizeParentMax=0;resizeLast=0;collapsible=1;marginBottom=0;whiteSpace=wrap;html=1;" vertex="1" collapsed="1" parent="fMl_8oeA1-R9pS056J6B-36">
          <mxGeometry y="90" width="250" height="30" as="geometry">
            <mxRectangle y="120" width="210" height="180" as="alternateBounds" />
          </mxGeometry>
        </mxCell>
        <mxCell id="fMl_8oeA1-R9pS056J6B-46" value="какие значения корректны" style="text;strokeColor=default;fillColor=default;align=left;verticalAlign=middle;spacingLeft=4;spacingRight=4;overflow=hidden;points=[[0,0.5],[1,0.5]];portConstraint=eastwest;rotatable=0;whiteSpace=wrap;html=1;" vertex="1" parent="fMl_8oeA1-R9pS056J6B-45">
          <mxGeometry y="30" width="210" height="30" as="geometry" />
        </mxCell>
        <mxCell id="fMl_8oeA1-R9pS056J6B-49" value="пример значений" style="text;strokeColor=default;fillColor=default;align=left;verticalAlign=middle;spacingLeft=4;spacingRight=4;overflow=hidden;points=[[0,0.5],[1,0.5]];portConstraint=eastwest;rotatable=0;whiteSpace=wrap;html=1;" vertex="1" parent="fMl_8oeA1-R9pS056J6B-45">
          <mxGeometry y="60" width="210" height="30" as="geometry" />
        </mxCell>
        <mxCell id="fMl_8oeA1-R9pS056J6B-50" value="тип данных" style="text;strokeColor=default;fillColor=default;align=left;verticalAlign=middle;spacingLeft=4;spacingRight=4;overflow=hidden;points=[[0,0.5],[1,0.5]];portConstraint=eastwest;rotatable=0;whiteSpace=wrap;html=1;" vertex="1" parent="fMl_8oeA1-R9pS056J6B-45">
          <mxGeometry y="90" width="210" height="30" as="geometry" />
        </mxCell>
        <mxCell id="fMl_8oeA1-R9pS056J6B-47" value="ошибки" style="text;strokeColor=default;fillColor=default;align=left;verticalAlign=middle;spacingLeft=4;spacingRight=4;overflow=hidden;points=[[0,0.5],[1,0.5]];portConstraint=eastwest;rotatable=0;whiteSpace=wrap;html=1;" vertex="1" parent="fMl_8oeA1-R9pS056J6B-45">
          <mxGeometry y="120" width="210" height="30" as="geometry" />
        </mxCell>
        <mxCell id="fMl_8oeA1-R9pS056J6B-48" value="ограничения" style="text;strokeColor=default;fillColor=default;align=left;verticalAlign=middle;spacingLeft=4;spacingRight=4;overflow=hidden;points=[[0,0.5],[1,0.5]];portConstraint=eastwest;rotatable=0;whiteSpace=wrap;html=1;" vertex="1" parent="fMl_8oeA1-R9pS056J6B-45">
          <mxGeometry y="150" width="210" height="30" as="geometry" />
        </mxCell>
        <mxCell id="fMl_8oeA1-R9pS056J6B-42" value="требования к интерфейсу" style="text;strokeColor=default;fillColor=default;align=left;verticalAlign=middle;spacingLeft=4;spacingRight=4;overflow=hidden;points=[[0,0.5],[1,0.5]];portConstraint=eastwest;rotatable=0;whiteSpace=wrap;html=1;" vertex="1" parent="fMl_8oeA1-R9pS056J6B-36">
          <mxGeometry y="120" width="250" height="30" as="geometry" />
        </mxCell>
        <mxCell id="fMl_8oeA1-R9pS056J6B-43" value="use case" style="text;strokeColor=default;fillColor=default;align=left;verticalAlign=middle;spacingLeft=4;spacingRight=4;overflow=hidden;points=[[0,0.5],[1,0.5]];portConstraint=eastwest;rotatable=0;whiteSpace=wrap;html=1;" vertex="1" parent="fMl_8oeA1-R9pS056J6B-36">
          <mxGeometry y="150" width="250" height="30" as="geometry" />
        </mxCell>
        <mxCell id="fMl_8oeA1-R9pS056J6B-27" value="нефункциональные требования" style="text;strokeColor=default;fillColor=default;align=left;verticalAlign=middle;spacingLeft=4;spacingRight=4;overflow=hidden;points=[[0,0.5],[1,0.5]];portConstraint=eastwest;rotatable=0;whiteSpace=wrap;html=1;" vertex="1" parent="fMl_8oeA1-R9pS056J6B-25">
          <mxGeometry y="180" width="250" height="30" as="geometry" />
        </mxCell>
        <mxCell id="fMl_8oeA1-R9pS056J6B-28" value="глоссарий" style="text;strokeColor=default;fillColor=default;align=left;verticalAlign=middle;spacingLeft=4;spacingRight=4;overflow=hidden;points=[[0,0.5],[1,0.5]];portConstraint=eastwest;rotatable=0;whiteSpace=wrap;html=1;" vertex="1" parent="fMl_8oeA1-R9pS056J6B-25">
          <mxGeometry y="210" width="250" height="30" as="geometry" />
        </mxCell>
        <mxCell id="fMl_8oeA1-R9pS056J6B-112" value="виды критериев к приемке" style="swimlane;fontStyle=0;childLayout=stackLayout;horizontal=1;startSize=30;horizontalStack=0;resizeParent=1;resizeParentMax=0;resizeLast=0;collapsible=1;marginBottom=0;whiteSpace=wrap;html=1;" vertex="1" collapsed="1" parent="fMl_8oeA1-R9pS056J6B-23">
          <mxGeometry x="160" y="70" width="190" height="30" as="geometry">
            <mxRectangle x="160" y="70" width="140" height="180" as="alternateBounds" />
          </mxGeometry>
        </mxCell>
        <mxCell id="fMl_8oeA1-R9pS056J6B-113" value="DoR - все материалы от бизеса предоставлены для выполнения" style="text;strokeColor=none;fillColor=none;align=left;verticalAlign=middle;spacingLeft=4;spacingRight=4;overflow=hidden;points=[[0,0.5],[1,0.5]];portConstraint=eastwest;rotatable=0;whiteSpace=wrap;html=1;" vertex="1" parent="fMl_8oeA1-R9pS056J6B-112">
          <mxGeometry y="30" width="140" height="80" as="geometry" />
        </mxCell>
        <mxCell id="fMl_8oeA1-R9pS056J6B-114" value="DoD - задача выполнена от раз. к биз" style="text;strokeColor=none;fillColor=none;align=left;verticalAlign=middle;spacingLeft=4;spacingRight=4;overflow=hidden;points=[[0,0.5],[1,0.5]];portConstraint=eastwest;rotatable=0;whiteSpace=wrap;html=1;" vertex="1" parent="fMl_8oeA1-R9pS056J6B-112">
          <mxGeometry y="110" width="140" height="70" as="geometry" />
        </mxCell>
        <mxCell id="fMl_8oeA1-R9pS056J6B-104" value="виды документаций" style="swimlane;fontStyle=0;childLayout=stackLayout;horizontal=1;startSize=30;horizontalStack=0;resizeParent=1;resizeParentMax=0;resizeLast=0;collapsible=1;marginBottom=0;whiteSpace=wrap;html=1;fillColor=#f8cecc;strokeColor=#b85450;" vertex="1" collapsed="1" parent="fMl_8oeA1-R9pS056J6B-23">
          <mxGeometry y="120" width="150" height="30" as="geometry">
            <mxRectangle y="120" width="140" height="210" as="alternateBounds" />
          </mxGeometry>
        </mxCell>
        <mxCell id="fMl_8oeA1-R9pS056J6B-105" value="Item 1" style="text;strokeColor=none;fillColor=none;align=left;verticalAlign=middle;spacingLeft=4;spacingRight=4;overflow=hidden;points=[[0,0.5],[1,0.5]];portConstraint=eastwest;rotatable=0;whiteSpace=wrap;html=1;" vertex="1" parent="fMl_8oeA1-R9pS056J6B-104">
          <mxGeometry y="30" width="140" height="30" as="geometry" />
        </mxCell>
        <mxCell id="fMl_8oeA1-R9pS056J6B-106" value="Item 2" style="text;strokeColor=none;fillColor=none;align=left;verticalAlign=middle;spacingLeft=4;spacingRight=4;overflow=hidden;points=[[0,0.5],[1,0.5]];portConstraint=eastwest;rotatable=0;whiteSpace=wrap;html=1;" vertex="1" parent="fMl_8oeA1-R9pS056J6B-104">
          <mxGeometry y="60" width="140" height="30" as="geometry" />
        </mxCell>
        <mxCell id="fMl_8oeA1-R9pS056J6B-108" value="инструкции" style="swimlane;fontStyle=0;childLayout=stackLayout;horizontal=1;startSize=30;horizontalStack=0;resizeParent=1;resizeParentMax=0;resizeLast=0;collapsible=1;marginBottom=0;whiteSpace=wrap;html=1;" vertex="1" parent="fMl_8oeA1-R9pS056J6B-104">
          <mxGeometry y="90" width="140" height="120" as="geometry" />
        </mxCell>
        <mxCell id="fMl_8oeA1-R9pS056J6B-109" value="Item 1" style="text;strokeColor=none;fillColor=none;align=left;verticalAlign=middle;spacingLeft=4;spacingRight=4;overflow=hidden;points=[[0,0.5],[1,0.5]];portConstraint=eastwest;rotatable=0;whiteSpace=wrap;html=1;" vertex="1" parent="fMl_8oeA1-R9pS056J6B-108">
          <mxGeometry y="30" width="140" height="30" as="geometry" />
        </mxCell>
        <mxCell id="fMl_8oeA1-R9pS056J6B-110" value="Item 2" style="text;strokeColor=none;fillColor=none;align=left;verticalAlign=middle;spacingLeft=4;spacingRight=4;overflow=hidden;points=[[0,0.5],[1,0.5]];portConstraint=eastwest;rotatable=0;whiteSpace=wrap;html=1;" vertex="1" parent="fMl_8oeA1-R9pS056J6B-108">
          <mxGeometry y="60" width="140" height="30" as="geometry" />
        </mxCell>
        <mxCell id="fMl_8oeA1-R9pS056J6B-111" value="Item 3" style="text;strokeColor=none;fillColor=none;align=left;verticalAlign=middle;spacingLeft=4;spacingRight=4;overflow=hidden;points=[[0,0.5],[1,0.5]];portConstraint=eastwest;rotatable=0;whiteSpace=wrap;html=1;" vertex="1" parent="fMl_8oeA1-R9pS056J6B-108">
          <mxGeometry y="90" width="140" height="30" as="geometry" />
        </mxCell>
        <mxCell id="fMl_8oeA1-R9pS056J6B-94" value="версионность" style="swimlane;whiteSpace=wrap;html=1;" vertex="1" collapsed="1" parent="1">
          <mxGeometry x="400" y="960" width="120" height="30" as="geometry">
            <mxRectangle x="400" y="960" width="200" height="130" as="alternateBounds" />
          </mxGeometry>
        </mxCell>
        <mxCell id="fMl_8oeA1-R9pS056J6B-95" value="" style="rounded=0;whiteSpace=wrap;html=1;" vertex="1" parent="fMl_8oeA1-R9pS056J6B-94">
          <mxGeometry y="30" width="200" height="100" as="geometry" />
        </mxCell>
        <mxCell id="fMl_8oeA1-R9pS056J6B-96" value="major" style="rounded=0;whiteSpace=wrap;html=1;" vertex="1" parent="fMl_8oeA1-R9pS056J6B-94">
          <mxGeometry y="100" width="50" height="30" as="geometry" />
        </mxCell>
        <mxCell id="fMl_8oeA1-R9pS056J6B-97" value="minor" style="rounded=0;whiteSpace=wrap;html=1;" vertex="1" parent="fMl_8oeA1-R9pS056J6B-94">
          <mxGeometry x="50" y="100" width="50" height="30" as="geometry" />
        </mxCell>
        <mxCell id="fMl_8oeA1-R9pS056J6B-98" value="patch" style="rounded=0;whiteSpace=wrap;html=1;" vertex="1" parent="fMl_8oeA1-R9pS056J6B-94">
          <mxGeometry x="100" y="100" width="50" height="30" as="geometry" />
        </mxCell>
        <mxCell id="fMl_8oeA1-R9pS056J6B-99" value="lable" style="rounded=0;whiteSpace=wrap;html=1;" vertex="1" parent="fMl_8oeA1-R9pS056J6B-94">
          <mxGeometry x="150" y="100" width="50" height="30" as="geometry" />
        </mxCell>
        <mxCell id="fMl_8oeA1-R9pS056J6B-100" value="1." style="rounded=0;whiteSpace=wrap;html=1;" vertex="1" parent="fMl_8oeA1-R9pS056J6B-94">
          <mxGeometry y="70" width="50" height="30" as="geometry" />
        </mxCell>
        <mxCell id="fMl_8oeA1-R9pS056J6B-101" value="1." style="rounded=0;whiteSpace=wrap;html=1;" vertex="1" parent="fMl_8oeA1-R9pS056J6B-94">
          <mxGeometry x="50" y="70" width="50" height="30" as="geometry" />
        </mxCell>
        <mxCell id="fMl_8oeA1-R9pS056J6B-102" value="1-" style="rounded=0;whiteSpace=wrap;html=1;" vertex="1" parent="fMl_8oeA1-R9pS056J6B-94">
          <mxGeometry x="100" y="70" width="50" height="30" as="geometry" />
        </mxCell>
        <mxCell id="fMl_8oeA1-R9pS056J6B-103" value="dev" style="rounded=0;whiteSpace=wrap;html=1;" vertex="1" parent="fMl_8oeA1-R9pS056J6B-94">
          <mxGeometry x="150" y="70" width="50" height="30" as="geometry" />
        </mxCell>
        <mxCell id="FlyFxrjDseqyHdytKtgx-36" value="интервью" style="swimlane;fontStyle=0;childLayout=stackLayout;horizontal=1;startSize=30;horizontalStack=0;resizeParent=1;resizeParentMax=0;resizeLast=0;collapsible=1;marginBottom=0;whiteSpace=wrap;html=1;" parent="1" vertex="1" collapsed="1">
          <mxGeometry x="240" y="750" width="120" height="30" as="geometry">
            <mxRectangle x="240" y="750" width="140" height="370" as="alternateBounds" />
          </mxGeometry>
        </mxCell>
        <mxCell id="FlyFxrjDseqyHdytKtgx-37" value="small talk" style="text;strokeColor=default;fillColor=default;align=left;verticalAlign=middle;spacingLeft=4;spacingRight=4;overflow=hidden;points=[[0,0.5],[1,0.5]];portConstraint=eastwest;rotatable=0;whiteSpace=wrap;html=1;" parent="FlyFxrjDseqyHdytKtgx-36" vertex="1">
          <mxGeometry y="30" width="140" height="30" as="geometry" />
        </mxCell>
        <mxCell id="FlyFxrjDseqyHdytKtgx-38" value="от целого к деталям" style="text;strokeColor=default;fillColor=default;align=left;verticalAlign=middle;spacingLeft=4;spacingRight=4;overflow=hidden;points=[[0,0.5],[1,0.5]];portConstraint=eastwest;rotatable=0;whiteSpace=wrap;html=1;" parent="FlyFxrjDseqyHdytKtgx-36" vertex="1">
          <mxGeometry y="60" width="140" height="30" as="geometry" />
        </mxCell>
        <mxCell id="FlyFxrjDseqyHdytKtgx-44" value="альтернативные варианты" style="text;strokeColor=default;fillColor=default;align=left;verticalAlign=middle;spacingLeft=4;spacingRight=4;overflow=hidden;points=[[0,0.5],[1,0.5]];portConstraint=eastwest;rotatable=0;whiteSpace=wrap;html=1;" parent="FlyFxrjDseqyHdytKtgx-36" vertex="1">
          <mxGeometry y="90" width="140" height="30" as="geometry" />
        </mxCell>
        <mxCell id="FlyFxrjDseqyHdytKtgx-40" value="выявление требований" style="swimlane;fontStyle=0;childLayout=stackLayout;horizontal=1;startSize=30;horizontalStack=0;resizeParent=1;resizeParentMax=0;resizeLast=0;collapsible=1;marginBottom=0;whiteSpace=wrap;html=1;fillColor=default;strokeColor=default;" parent="FlyFxrjDseqyHdytKtgx-36" vertex="1">
          <mxGeometry y="120" width="140" height="180" as="geometry">
            <mxRectangle y="120" width="140" height="30" as="alternateBounds" />
          </mxGeometry>
        </mxCell>
        <mxCell id="FlyFxrjDseqyHdytKtgx-46" value="smart" style="swimlane;fontStyle=0;childLayout=stackLayout;horizontal=1;startSize=30;horizontalStack=0;resizeParent=1;resizeParentMax=0;resizeLast=0;collapsible=1;marginBottom=0;whiteSpace=wrap;html=1;" parent="FlyFxrjDseqyHdytKtgx-40" vertex="1">
          <mxGeometry y="30" width="140" height="120" as="geometry">
            <mxRectangle y="30" width="140" height="30" as="alternateBounds" />
          </mxGeometry>
        </mxCell>
        <mxCell id="FlyFxrjDseqyHdytKtgx-47" value="конкретность, измеримость" style="text;strokeColor=default;fillColor=default;align=left;verticalAlign=middle;spacingLeft=4;spacingRight=4;overflow=hidden;points=[[0,0.5],[1,0.5]];portConstraint=eastwest;rotatable=0;whiteSpace=wrap;html=1;" parent="FlyFxrjDseqyHdytKtgx-46" vertex="1">
          <mxGeometry y="30" width="140" height="30" as="geometry" />
        </mxCell>
        <mxCell id="FlyFxrjDseqyHdytKtgx-48" value="ограничение по времени" style="text;strokeColor=default;fillColor=default;align=left;verticalAlign=middle;spacingLeft=4;spacingRight=4;overflow=hidden;points=[[0,0.5],[1,0.5]];portConstraint=eastwest;rotatable=0;whiteSpace=wrap;html=1;" parent="FlyFxrjDseqyHdytKtgx-46" vertex="1">
          <mxGeometry y="60" width="140" height="30" as="geometry" />
        </mxCell>
        <mxCell id="FlyFxrjDseqyHdytKtgx-49" value="уместность, достижимость" style="text;strokeColor=default;fillColor=default;align=left;verticalAlign=middle;spacingLeft=4;spacingRight=4;overflow=hidden;points=[[0,0.5],[1,0.5]];portConstraint=eastwest;rotatable=0;whiteSpace=wrap;html=1;" parent="FlyFxrjDseqyHdytKtgx-46" vertex="1">
          <mxGeometry y="90" width="140" height="30" as="geometry" />
        </mxCell>
        <mxCell id="FlyFxrjDseqyHdytKtgx-50" value="виды требований" style="swimlane;fontStyle=0;childLayout=stackLayout;horizontal=1;startSize=30;horizontalStack=0;resizeParent=1;resizeParentMax=0;resizeLast=0;collapsible=1;marginBottom=0;whiteSpace=wrap;html=1;" parent="FlyFxrjDseqyHdytKtgx-40" vertex="1" collapsed="1">
          <mxGeometry y="150" width="140" height="30" as="geometry">
            <mxRectangle y="150" width="140" height="190" as="alternateBounds" />
          </mxGeometry>
        </mxCell>
        <mxCell id="FlyFxrjDseqyHdytKtgx-51" value="бизнес требования" style="text;strokeColor=default;fillColor=default;align=left;verticalAlign=middle;spacingLeft=4;spacingRight=4;overflow=hidden;points=[[0,0.5],[1,0.5]];portConstraint=eastwest;rotatable=0;whiteSpace=wrap;html=1;" parent="FlyFxrjDseqyHdytKtgx-50" vertex="1">
          <mxGeometry y="30" width="140" height="50" as="geometry" />
        </mxCell>
        <mxCell id="FlyFxrjDseqyHdytKtgx-52" value="требования заинт сторон (внешние)" style="text;strokeColor=default;fillColor=default;align=left;verticalAlign=middle;spacingLeft=4;spacingRight=4;overflow=hidden;points=[[0,0.5],[1,0.5]];portConstraint=eastwest;rotatable=0;whiteSpace=wrap;html=1;" parent="FlyFxrjDseqyHdytKtgx-50" vertex="1">
          <mxGeometry y="80" width="140" height="50" as="geometry" />
        </mxCell>
        <mxCell id="FlyFxrjDseqyHdytKtgx-53" value="требования к решениям (внутренние)" style="text;strokeColor=default;fillColor=default;align=left;verticalAlign=middle;spacingLeft=4;spacingRight=4;overflow=hidden;points=[[0,0.5],[1,0.5]];portConstraint=eastwest;rotatable=0;whiteSpace=wrap;html=1;" parent="FlyFxrjDseqyHdytKtgx-50" vertex="1">
          <mxGeometry y="130" width="140" height="60" as="geometry" />
        </mxCell>
        <mxCell id="FlyFxrjDseqyHdytKtgx-39" value="подтверждение полученных результатов" style="text;strokeColor=default;fillColor=default;align=left;verticalAlign=middle;spacingLeft=4;spacingRight=4;overflow=hidden;points=[[0,0.5],[1,0.5]];portConstraint=eastwest;rotatable=0;whiteSpace=wrap;html=1;" parent="FlyFxrjDseqyHdytKtgx-36" vertex="1">
          <mxGeometry y="300" width="140" height="70" as="geometry" />
        </mxCell>
        <mxCell id="FlyFxrjDseqyHdytKtgx-126" value="архитектура" style="swimlane;whiteSpace=wrap;html=1;" parent="1" vertex="1" collapsed="1">
          <mxGeometry x="240" y="880" width="330" height="30" as="geometry">
            <mxRectangle x="240" y="880" width="520" height="650" as="alternateBounds" />
          </mxGeometry>
        </mxCell>
        <mxCell id="st9Nu50ljxXsiS8LjL6p-35" value="" style="rounded=0;whiteSpace=wrap;html=1;" parent="FlyFxrjDseqyHdytKtgx-126" vertex="1">
          <mxGeometry y="20" width="520" height="620" as="geometry" />
        </mxCell>
        <mxCell id="st9Nu50ljxXsiS8LjL6p-47" value="шина(оркестрация)" style="swimlane;whiteSpace=wrap;html=1;" parent="FlyFxrjDseqyHdytKtgx-126" vertex="1" collapsed="1">
          <mxGeometry y="110" width="160" height="30" as="geometry">
            <mxRectangle y="110" width="160" height="370" as="alternateBounds" />
          </mxGeometry>
        </mxCell>
        <mxCell id="st9Nu50ljxXsiS8LjL6p-36" value="" style="rounded=0;whiteSpace=wrap;html=1;" parent="st9Nu50ljxXsiS8LjL6p-47" vertex="1">
          <mxGeometry y="30" width="160" height="320" as="geometry" />
        </mxCell>
        <mxCell id="st9Nu50ljxXsiS8LjL6p-45" style="edgeStyle=orthogonalEdgeStyle;rounded=0;orthogonalLoop=1;jettySize=auto;html=1;entryX=1;entryY=0.5;entryDx=0;entryDy=0;fillColor=#f8cecc;strokeColor=#b85450;" parent="st9Nu50ljxXsiS8LjL6p-47" source="st9Nu50ljxXsiS8LjL6p-38" target="st9Nu50ljxXsiS8LjL6p-42" edge="1">
          <mxGeometry relative="1" as="geometry">
            <Array as="points">
              <mxPoint x="120" y="285" />
            </Array>
          </mxGeometry>
        </mxCell>
        <mxCell id="st9Nu50ljxXsiS8LjL6p-37" value="принцип работы" style="rounded=0;whiteSpace=wrap;html=1;" parent="st9Nu50ljxXsiS8LjL6p-47" vertex="1">
          <mxGeometry y="30" width="160" height="20" as="geometry" />
        </mxCell>
        <mxCell id="st9Nu50ljxXsiS8LjL6p-43" style="edgeStyle=orthogonalEdgeStyle;rounded=0;orthogonalLoop=1;jettySize=auto;html=1;entryX=1;entryY=0.5;entryDx=0;entryDy=0;fillColor=#d5e8d4;strokeColor=#82b366;" parent="st9Nu50ljxXsiS8LjL6p-47" source="st9Nu50ljxXsiS8LjL6p-38" target="st9Nu50ljxXsiS8LjL6p-40" edge="1">
          <mxGeometry relative="1" as="geometry">
            <Array as="points">
              <mxPoint x="120" y="205" />
            </Array>
          </mxGeometry>
        </mxCell>
        <mxCell id="st9Nu50ljxXsiS8LjL6p-44" style="edgeStyle=orthogonalEdgeStyle;rounded=0;orthogonalLoop=1;jettySize=auto;html=1;entryX=1;entryY=0.5;entryDx=0;entryDy=0;fillColor=#d5e8d4;strokeColor=#82b366;" parent="st9Nu50ljxXsiS8LjL6p-47" source="st9Nu50ljxXsiS8LjL6p-38" target="st9Nu50ljxXsiS8LjL6p-41" edge="1">
          <mxGeometry relative="1" as="geometry">
            <Array as="points">
              <mxPoint x="120" y="245" />
            </Array>
          </mxGeometry>
        </mxCell>
        <mxCell id="st9Nu50ljxXsiS8LjL6p-38" value="&lt;div&gt;&lt;br&gt;&lt;/div&gt;&lt;div&gt;шина&lt;/div&gt;&lt;div&gt;&lt;br&gt;&lt;/div&gt;&lt;div&gt;&lt;br&gt;&lt;/div&gt;{event1: callserv[1,2]}" style="rounded=0;whiteSpace=wrap;html=1;" parent="st9Nu50ljxXsiS8LjL6p-47" vertex="1">
          <mxGeometry x="70" y="70" width="80" height="90" as="geometry" />
        </mxCell>
        <mxCell id="st9Nu50ljxXsiS8LjL6p-39" value="event1" style="shape=step;perimeter=stepPerimeter;whiteSpace=wrap;html=1;fixedSize=1;size=10;" parent="st9Nu50ljxXsiS8LjL6p-47" vertex="1">
          <mxGeometry x="10" y="70" width="60" height="21" as="geometry" />
        </mxCell>
        <mxCell id="st9Nu50ljxXsiS8LjL6p-40" value="service1" style="shape=process;whiteSpace=wrap;html=1;backgroundOutline=1;" parent="st9Nu50ljxXsiS8LjL6p-47" vertex="1">
          <mxGeometry x="5" y="190" width="60" height="30" as="geometry" />
        </mxCell>
        <mxCell id="st9Nu50ljxXsiS8LjL6p-41" value="service2" style="shape=process;whiteSpace=wrap;html=1;backgroundOutline=1;" parent="st9Nu50ljxXsiS8LjL6p-47" vertex="1">
          <mxGeometry x="5" y="230" width="60" height="30" as="geometry" />
        </mxCell>
        <mxCell id="st9Nu50ljxXsiS8LjL6p-42" value="service3" style="shape=process;whiteSpace=wrap;html=1;backgroundOutline=1;" parent="st9Nu50ljxXsiS8LjL6p-47" vertex="1">
          <mxGeometry x="5" y="270" width="60" height="30" as="geometry" />
        </mxCell>
        <mxCell id="st9Nu50ljxXsiS8LjL6p-46" value="service func:&lt;div&gt;sub/unsub&lt;br&gt;&lt;/div&gt;" style="shape=process;whiteSpace=wrap;html=1;backgroundOutline=1;size=0.07142857142857142;" parent="st9Nu50ljxXsiS8LjL6p-47" vertex="1">
          <mxGeometry x="10" y="310" width="140" height="30" as="geometry" />
        </mxCell>
        <mxCell id="st9Nu50ljxXsiS8LjL6p-52" value="управление данными в распред. системах" style="swimlane;whiteSpace=wrap;html=1;fillColor=#f8cecc;strokeColor=#b85450;" parent="FlyFxrjDseqyHdytKtgx-126" vertex="1" collapsed="1">
          <mxGeometry y="30" width="160" height="30" as="geometry">
            <mxRectangle y="30" width="200" height="207.5" as="alternateBounds" />
          </mxGeometry>
        </mxCell>
        <mxCell id="st9Nu50ljxXsiS8LjL6p-53" value="" style="rounded=0;whiteSpace=wrap;html=1;" parent="st9Nu50ljxXsiS8LjL6p-52" vertex="1">
          <mxGeometry y="32.5" width="200" height="175" as="geometry" />
        </mxCell>
        <mxCell id="st9Nu50ljxXsiS8LjL6p-54" value="централиз" style="rounded=0;whiteSpace=wrap;html=1;" parent="st9Nu50ljxXsiS8LjL6p-52" vertex="1">
          <mxGeometry x="10" y="47.5" width="80" height="15" as="geometry" />
        </mxCell>
        <mxCell id="st9Nu50ljxXsiS8LjL6p-55" value="" style="endArrow=none;dashed=1;html=1;dashPattern=1 3;strokeWidth=2;rounded=0;" parent="st9Nu50ljxXsiS8LjL6p-52" edge="1">
          <mxGeometry width="50" height="50" relative="1" as="geometry">
            <mxPoint x="30" y="127.5" as="sourcePoint" />
            <mxPoint x="30" y="67.5" as="targetPoint" />
          </mxGeometry>
        </mxCell>
        <mxCell id="st9Nu50ljxXsiS8LjL6p-56" value="хореография" style="rounded=0;whiteSpace=wrap;html=1;" parent="st9Nu50ljxXsiS8LjL6p-52" vertex="1">
          <mxGeometry x="10" y="87.5" width="80" height="15" as="geometry" />
        </mxCell>
        <mxCell id="st9Nu50ljxXsiS8LjL6p-57" value="оркестровка" style="rounded=0;whiteSpace=wrap;html=1;" parent="st9Nu50ljxXsiS8LjL6p-52" vertex="1">
          <mxGeometry x="10" y="112.5" width="80" height="15" as="geometry" />
        </mxCell>
        <mxCell id="st9Nu50ljxXsiS8LjL6p-58" value="децентрализ" style="rounded=0;whiteSpace=wrap;html=1;" parent="st9Nu50ljxXsiS8LjL6p-52" vertex="1">
          <mxGeometry x="110" y="47.5" width="80" height="15" as="geometry" />
        </mxCell>
        <mxCell id="st9Nu50ljxXsiS8LjL6p-76" value="виды архитектур" style="swimlane;whiteSpace=wrap;html=1;" parent="FlyFxrjDseqyHdytKtgx-126" vertex="1" collapsed="1">
          <mxGeometry x="200" y="30" width="230" height="30" as="geometry">
            <mxRectangle x="200" y="30" width="320" height="600" as="alternateBounds" />
          </mxGeometry>
        </mxCell>
        <mxCell id="st9Nu50ljxXsiS8LjL6p-108" value="микросервисы" style="swimlane;whiteSpace=wrap;html=1;" parent="st9Nu50ljxXsiS8LjL6p-76" vertex="1" collapsed="1">
          <mxGeometry x="3" y="80" width="90" height="30" as="geometry">
            <mxRectangle x="3" y="80" width="234" height="360" as="alternateBounds" />
          </mxGeometry>
        </mxCell>
        <mxCell id="st9Nu50ljxXsiS8LjL6p-109" value="Набор сервисов взаимодействующих друг с другом. Каждый сервис - атомарен" style="rounded=0;whiteSpace=wrap;html=1;" parent="st9Nu50ljxXsiS8LjL6p-108" vertex="1">
          <mxGeometry x="2" y="30" width="230" height="80" as="geometry" />
        </mxCell>
        <mxCell id="st9Nu50ljxXsiS8LjL6p-110" value="плюсы" style="swimlane;fontStyle=0;childLayout=stackLayout;horizontal=1;startSize=30;horizontalStack=0;resizeParent=1;resizeParentMax=0;resizeLast=0;collapsible=1;marginBottom=0;whiteSpace=wrap;html=1;" parent="st9Nu50ljxXsiS8LjL6p-108" vertex="1">
          <mxGeometry x="2" y="120" width="110" height="150" as="geometry">
            <mxRectangle x="10" y="120" width="110" height="30" as="alternateBounds" />
          </mxGeometry>
        </mxCell>
        <mxCell id="st9Nu50ljxXsiS8LjL6p-111" value="масштабируемость и гибкость" style="text;strokeColor=default;fillColor=default;align=left;verticalAlign=middle;spacingLeft=4;spacingRight=4;overflow=hidden;points=[[0,0.5],[1,0.5]];portConstraint=eastwest;rotatable=0;whiteSpace=wrap;html=1;" parent="st9Nu50ljxXsiS8LjL6p-110" vertex="1">
          <mxGeometry y="30" width="110" height="40" as="geometry" />
        </mxCell>
        <mxCell id="st9Nu50ljxXsiS8LjL6p-112" value="технологическая независимость компонентов" style="text;strokeColor=default;fillColor=default;align=left;verticalAlign=middle;spacingLeft=4;spacingRight=4;overflow=hidden;points=[[0,0.5],[1,0.5]];portConstraint=eastwest;rotatable=0;whiteSpace=wrap;html=1;" parent="st9Nu50ljxXsiS8LjL6p-110" vertex="1">
          <mxGeometry y="70" width="110" height="50" as="geometry" />
        </mxCell>
        <mxCell id="st9Nu50ljxXsiS8LjL6p-113" value="непрерывная доставка и развертывание" style="text;strokeColor=default;fillColor=default;align=left;verticalAlign=middle;spacingLeft=4;spacingRight=4;overflow=hidden;points=[[0,0.5],[1,0.5]];portConstraint=eastwest;rotatable=0;whiteSpace=wrap;html=1;" parent="st9Nu50ljxXsiS8LjL6p-110" vertex="1">
          <mxGeometry y="120" width="110" height="30" as="geometry" />
        </mxCell>
        <mxCell id="st9Nu50ljxXsiS8LjL6p-114" value="минусы" style="swimlane;fontStyle=0;childLayout=stackLayout;horizontal=1;startSize=30;horizontalStack=0;resizeParent=1;resizeParentMax=0;resizeLast=0;collapsible=1;marginBottom=0;whiteSpace=wrap;html=1;" parent="st9Nu50ljxXsiS8LjL6p-108" vertex="1">
          <mxGeometry x="122" y="120" width="110" height="210" as="geometry">
            <mxRectangle x="130" y="120" width="110" height="30" as="alternateBounds" />
          </mxGeometry>
        </mxCell>
        <mxCell id="st9Nu50ljxXsiS8LjL6p-115" value="сложность управления" style="text;strokeColor=default;fillColor=default;align=left;verticalAlign=middle;spacingLeft=4;spacingRight=4;overflow=hidden;points=[[0,0.5],[1,0.5]];portConstraint=eastwest;rotatable=0;whiteSpace=wrap;html=1;" parent="st9Nu50ljxXsiS8LjL6p-114" vertex="1">
          <mxGeometry y="30" width="110" height="30" as="geometry" />
        </mxCell>
        <mxCell id="st9Nu50ljxXsiS8LjL6p-116" value="стоимость" style="text;strokeColor=default;fillColor=default;align=left;verticalAlign=middle;spacingLeft=4;spacingRight=4;overflow=hidden;points=[[0,0.5],[1,0.5]];portConstraint=eastwest;rotatable=0;whiteSpace=wrap;html=1;" parent="st9Nu50ljxXsiS8LjL6p-114" vertex="1">
          <mxGeometry y="60" width="110" height="30" as="geometry" />
        </mxCell>
        <mxCell id="st9Nu50ljxXsiS8LjL6p-126" value="безопасность" style="text;strokeColor=default;fillColor=default;align=left;verticalAlign=middle;spacingLeft=4;spacingRight=4;overflow=hidden;points=[[0,0.5],[1,0.5]];portConstraint=eastwest;rotatable=0;whiteSpace=wrap;html=1;" parent="st9Nu50ljxXsiS8LjL6p-114" vertex="1">
          <mxGeometry y="90" width="110" height="30" as="geometry" />
        </mxCell>
        <mxCell id="st9Nu50ljxXsiS8LjL6p-128" value="мониторинг необходим" style="text;strokeColor=default;fillColor=default;align=left;verticalAlign=middle;spacingLeft=4;spacingRight=4;overflow=hidden;points=[[0,0.5],[1,0.5]];portConstraint=eastwest;rotatable=0;whiteSpace=wrap;html=1;" parent="st9Nu50ljxXsiS8LjL6p-114" vertex="1">
          <mxGeometry y="120" width="110" height="30" as="geometry" />
        </mxCell>
        <mxCell id="st9Nu50ljxXsiS8LjL6p-127" value="снижение производительности" style="text;strokeColor=default;fillColor=default;align=left;verticalAlign=middle;spacingLeft=4;spacingRight=4;overflow=hidden;points=[[0,0.5],[1,0.5]];portConstraint=eastwest;rotatable=0;whiteSpace=wrap;html=1;" parent="st9Nu50ljxXsiS8LjL6p-114" vertex="1">
          <mxGeometry y="150" width="110" height="30" as="geometry" />
        </mxCell>
        <mxCell id="st9Nu50ljxXsiS8LjL6p-117" value="не целостность данных" style="text;strokeColor=default;fillColor=default;align=left;verticalAlign=middle;spacingLeft=4;spacingRight=4;overflow=hidden;points=[[0,0.5],[1,0.5]];portConstraint=eastwest;rotatable=0;whiteSpace=wrap;html=1;" parent="st9Nu50ljxXsiS8LjL6p-114" vertex="1">
          <mxGeometry y="180" width="110" height="30" as="geometry" />
        </mxCell>
        <mxCell id="fMl_8oeA1-R9pS056J6B-1" value="SOE&amp;nbsp;" style="swimlane;whiteSpace=wrap;html=1;" vertex="1" collapsed="1" parent="st9Nu50ljxXsiS8LjL6p-76">
          <mxGeometry x="100" y="80" width="130" height="30" as="geometry">
            <mxRectangle x="100" y="80" width="200" height="360" as="alternateBounds" />
          </mxGeometry>
        </mxCell>
        <mxCell id="fMl_8oeA1-R9pS056J6B-2" value="сервис ориентированная архитектура подразумевает модульность приложений с единой системой управления (шиной)" style="rounded=0;whiteSpace=wrap;html=1;" vertex="1" parent="fMl_8oeA1-R9pS056J6B-1">
          <mxGeometry x="2" y="30" width="188" height="80" as="geometry" />
        </mxCell>
        <mxCell id="fMl_8oeA1-R9pS056J6B-21" value="каждый модуль обладает своим интерфейсом" style="rounded=0;whiteSpace=wrap;html=1;" vertex="1" parent="fMl_8oeA1-R9pS056J6B-1">
          <mxGeometry x="2" y="120" width="188" height="60" as="geometry" />
        </mxCell>
        <mxCell id="fMl_8oeA1-R9pS056J6B-22" value="все модули управляются единим центром управления" style="rounded=0;whiteSpace=wrap;html=1;" vertex="1" parent="fMl_8oeA1-R9pS056J6B-1">
          <mxGeometry x="3" y="190" width="187" height="60" as="geometry" />
        </mxCell>
        <mxCell id="st9Nu50ljxXsiS8LjL6p-119" value="этапы разбивки на микросервисы" style="swimlane;fontStyle=0;childLayout=stackLayout;horizontal=1;startSize=30;horizontalStack=0;resizeParent=1;resizeParentMax=0;resizeLast=0;collapsible=1;marginBottom=0;whiteSpace=wrap;html=1;" parent="st9Nu50ljxXsiS8LjL6p-76" vertex="1" collapsed="1">
          <mxGeometry x="100" y="35" width="130" height="30" as="geometry">
            <mxRectangle x="100" y="35" width="130" height="440" as="alternateBounds" />
          </mxGeometry>
        </mxCell>
        <mxCell id="st9Nu50ljxXsiS8LjL6p-120" value="анализ функциональности (разбивка на компоненты и модули)" style="text;strokeColor=default;fillColor=default;align=left;verticalAlign=middle;spacingLeft=4;spacingRight=4;overflow=hidden;points=[[0,0.5],[1,0.5]];portConstraint=eastwest;rotatable=0;whiteSpace=wrap;html=1;" parent="st9Nu50ljxXsiS8LjL6p-119" vertex="1">
          <mxGeometry y="30" width="130" height="80" as="geometry" />
        </mxCell>
        <mxCell id="st9Nu50ljxXsiS8LjL6p-121" value="Определение интерфейсов (явные интерфейсы взаимодействия компонентов Апи , сообщения и проч.)" style="text;strokeColor=default;fillColor=default;align=left;verticalAlign=middle;spacingLeft=4;spacingRight=4;overflow=hidden;points=[[0,0.5],[1,0.5]];portConstraint=eastwest;rotatable=0;whiteSpace=wrap;html=1;" parent="st9Nu50ljxXsiS8LjL6p-119" vertex="1">
          <mxGeometry y="110" width="130" height="100" as="geometry" />
        </mxCell>
        <mxCell id="st9Nu50ljxXsiS8LjL6p-122" value="Границы данных (распределение данных между сервисами )структура бд" style="text;strokeColor=default;fillColor=default;align=left;verticalAlign=middle;spacingLeft=4;spacingRight=4;overflow=hidden;points=[[0,0.5],[1,0.5]];portConstraint=eastwest;rotatable=0;whiteSpace=wrap;html=1;" parent="st9Nu50ljxXsiS8LjL6p-119" vertex="1">
          <mxGeometry y="210" width="130" height="80" as="geometry" />
        </mxCell>
        <mxCell id="st9Nu50ljxXsiS8LjL6p-125" value="поэтапное развертывание (разработка)" style="text;strokeColor=default;fillColor=default;align=left;verticalAlign=middle;spacingLeft=4;spacingRight=4;overflow=hidden;points=[[0,0.5],[1,0.5]];portConstraint=eastwest;rotatable=0;whiteSpace=wrap;html=1;" parent="st9Nu50ljxXsiS8LjL6p-119" vertex="1">
          <mxGeometry y="290" width="130" height="50" as="geometry" />
        </mxCell>
        <mxCell id="st9Nu50ljxXsiS8LjL6p-124" value="Управление зависимостями и коммуникацией между компонентами" style="text;strokeColor=default;fillColor=default;align=left;verticalAlign=middle;spacingLeft=4;spacingRight=4;overflow=hidden;points=[[0,0.5],[1,0.5]];portConstraint=eastwest;rotatable=0;whiteSpace=wrap;html=1;" parent="st9Nu50ljxXsiS8LjL6p-119" vertex="1">
          <mxGeometry y="340" width="130" height="70" as="geometry" />
        </mxCell>
        <mxCell id="st9Nu50ljxXsiS8LjL6p-123" value="мониторинг и отладка" style="text;strokeColor=default;fillColor=default;align=left;verticalAlign=middle;spacingLeft=4;spacingRight=4;overflow=hidden;points=[[0,0.5],[1,0.5]];portConstraint=eastwest;rotatable=0;whiteSpace=wrap;html=1;" parent="st9Nu50ljxXsiS8LjL6p-119" vertex="1">
          <mxGeometry y="410" width="130" height="30" as="geometry" />
        </mxCell>
        <mxCell id="st9Nu50ljxXsiS8LjL6p-77" value="монолит" style="swimlane;whiteSpace=wrap;html=1;" parent="st9Nu50ljxXsiS8LjL6p-76" vertex="1" collapsed="1">
          <mxGeometry x="3" y="35" width="90" height="30" as="geometry">
            <mxRectangle x="3" y="35" width="234" height="260" as="alternateBounds" />
          </mxGeometry>
        </mxCell>
        <mxCell id="st9Nu50ljxXsiS8LjL6p-81" value="плюсы" style="swimlane;fontStyle=0;childLayout=stackLayout;horizontal=1;startSize=30;horizontalStack=0;resizeParent=1;resizeParentMax=0;resizeLast=0;collapsible=1;marginBottom=0;whiteSpace=wrap;html=1;" parent="st9Nu50ljxXsiS8LjL6p-77" vertex="1" collapsed="1">
          <mxGeometry y="60" width="110" height="30" as="geometry">
            <mxRectangle y="60" width="110" height="200" as="alternateBounds" />
          </mxGeometry>
        </mxCell>
        <mxCell id="st9Nu50ljxXsiS8LjL6p-82" value="простота , легкость разработки" style="text;strokeColor=default;fillColor=default;align=left;verticalAlign=middle;spacingLeft=4;spacingRight=4;overflow=hidden;points=[[0,0.5],[1,0.5]];portConstraint=eastwest;rotatable=0;whiteSpace=wrap;html=1;" parent="st9Nu50ljxXsiS8LjL6p-81" vertex="1">
          <mxGeometry y="30" width="110" height="60" as="geometry" />
        </mxCell>
        <mxCell id="st9Nu50ljxXsiS8LjL6p-83" value="производительность и эффективность (все сервисы внутри одного процесса)" style="text;strokeColor=default;fillColor=default;align=left;verticalAlign=middle;spacingLeft=4;spacingRight=4;overflow=hidden;points=[[0,0.5],[1,0.5]];portConstraint=eastwest;rotatable=0;whiteSpace=wrap;html=1;" parent="st9Nu50ljxXsiS8LjL6p-81" vertex="1">
          <mxGeometry y="90" width="110" height="80" as="geometry" />
        </mxCell>
        <mxCell id="st9Nu50ljxXsiS8LjL6p-84" value="прямой доступ к бд" style="text;strokeColor=default;fillColor=default;align=left;verticalAlign=middle;spacingLeft=4;spacingRight=4;overflow=hidden;points=[[0,0.5],[1,0.5]];portConstraint=eastwest;rotatable=0;whiteSpace=wrap;html=1;" parent="st9Nu50ljxXsiS8LjL6p-81" vertex="1">
          <mxGeometry y="170" width="110" height="30" as="geometry" />
        </mxCell>
        <mxCell id="st9Nu50ljxXsiS8LjL6p-85" value="минусы" style="swimlane;fontStyle=0;childLayout=stackLayout;horizontal=1;startSize=30;horizontalStack=0;resizeParent=1;resizeParentMax=0;resizeLast=0;collapsible=1;marginBottom=0;whiteSpace=wrap;html=1;" parent="st9Nu50ljxXsiS8LjL6p-77" vertex="1" collapsed="1">
          <mxGeometry x="120" y="60" width="110" height="30" as="geometry">
            <mxRectangle x="120" y="60" width="110" height="140" as="alternateBounds" />
          </mxGeometry>
        </mxCell>
        <mxCell id="st9Nu50ljxXsiS8LjL6p-86" value="масштабирование" style="text;strokeColor=default;fillColor=default;align=left;verticalAlign=middle;spacingLeft=4;spacingRight=4;overflow=hidden;points=[[0,0.5],[1,0.5]];portConstraint=eastwest;rotatable=0;whiteSpace=wrap;html=1;" parent="st9Nu50ljxXsiS8LjL6p-85" vertex="1">
          <mxGeometry y="30" width="110" height="30" as="geometry" />
        </mxCell>
        <mxCell id="st9Nu50ljxXsiS8LjL6p-87" value="развертывание и обслуживание" style="text;strokeColor=default;fillColor=default;align=left;verticalAlign=middle;spacingLeft=4;spacingRight=4;overflow=hidden;points=[[0,0.5],[1,0.5]];portConstraint=eastwest;rotatable=0;whiteSpace=wrap;html=1;" parent="st9Nu50ljxXsiS8LjL6p-85" vertex="1">
          <mxGeometry y="60" width="110" height="30" as="geometry" />
        </mxCell>
        <mxCell id="st9Nu50ljxXsiS8LjL6p-88" value="сложность внедрения новых технологий" style="text;strokeColor=default;fillColor=default;align=left;verticalAlign=middle;spacingLeft=4;spacingRight=4;overflow=hidden;points=[[0,0.5],[1,0.5]];portConstraint=eastwest;rotatable=0;whiteSpace=wrap;html=1;" parent="st9Nu50ljxXsiS8LjL6p-85" vertex="1">
          <mxGeometry y="90" width="110" height="50" as="geometry" />
        </mxCell>
        <mxCell id="st9Nu50ljxXsiS8LjL6p-78" value="единое приложение с одной бд" style="rounded=0;whiteSpace=wrap;html=1;" parent="st9Nu50ljxXsiS8LjL6p-77" vertex="1">
          <mxGeometry y="32.5" width="230" height="20" as="geometry" />
        </mxCell>
        <mxCell id="st9Nu50ljxXsiS8LjL6p-59" value="брокер (хореография)" style="swimlane;whiteSpace=wrap;html=1;" parent="FlyFxrjDseqyHdytKtgx-126" vertex="1" collapsed="1">
          <mxGeometry y="70" width="160" height="30" as="geometry">
            <mxRectangle y="70" width="280" height="580" as="alternateBounds" />
          </mxGeometry>
        </mxCell>
        <mxCell id="st9Nu50ljxXsiS8LjL6p-60" value="" style="rounded=0;whiteSpace=wrap;html=1;" parent="st9Nu50ljxXsiS8LjL6p-59" vertex="1">
          <mxGeometry y="25" width="280" height="555" as="geometry" />
        </mxCell>
        <mxCell id="st9Nu50ljxXsiS8LjL6p-61" value="принцип работы" style="rounded=0;whiteSpace=wrap;html=1;" parent="st9Nu50ljxXsiS8LjL6p-59" vertex="1">
          <mxGeometry y="40" width="280" height="20" as="geometry" />
        </mxCell>
        <mxCell id="st9Nu50ljxXsiS8LjL6p-62" value="event1" style="shape=step;perimeter=stepPerimeter;whiteSpace=wrap;html=1;fixedSize=1;size=10;" parent="st9Nu50ljxXsiS8LjL6p-59" vertex="1">
          <mxGeometry x="47" y="90" width="60" height="21" as="geometry" />
        </mxCell>
        <mxCell id="st9Nu50ljxXsiS8LjL6p-63" value="очередь" style="shape=cylinder3;whiteSpace=wrap;html=1;boundedLbl=1;backgroundOutline=1;size=15;" parent="st9Nu50ljxXsiS8LjL6p-59" vertex="1">
          <mxGeometry x="107" y="80" width="60" height="80" as="geometry" />
        </mxCell>
        <mxCell id="st9Nu50ljxXsiS8LjL6p-64" value="event2" style="shape=step;perimeter=stepPerimeter;whiteSpace=wrap;html=1;fixedSize=1;size=10;" parent="st9Nu50ljxXsiS8LjL6p-59" vertex="1">
          <mxGeometry x="47" y="111" width="60" height="21" as="geometry" />
        </mxCell>
        <mxCell id="st9Nu50ljxXsiS8LjL6p-65" value="процесс обработки очереди" style="shape=process;whiteSpace=wrap;html=1;backgroundOutline=1;" parent="st9Nu50ljxXsiS8LjL6p-59" vertex="1">
          <mxGeometry x="77" y="210" width="120" height="60" as="geometry" />
        </mxCell>
        <mxCell id="st9Nu50ljxXsiS8LjL6p-66" style="edgeStyle=orthogonalEdgeStyle;rounded=0;orthogonalLoop=1;jettySize=auto;html=1;entryX=0.5;entryY=1;entryDx=0;entryDy=0;entryPerimeter=0;" parent="st9Nu50ljxXsiS8LjL6p-59" source="st9Nu50ljxXsiS8LjL6p-65" target="st9Nu50ljxXsiS8LjL6p-63" edge="1">
          <mxGeometry relative="1" as="geometry" />
        </mxCell>
        <mxCell id="st9Nu50ljxXsiS8LjL6p-67" value="работа с очередью от лица сервисов" style="swimlane;fontStyle=0;childLayout=stackLayout;horizontal=1;startSize=30;horizontalStack=0;resizeParent=1;resizeParentMax=0;resizeLast=0;collapsible=1;marginBottom=0;whiteSpace=wrap;html=1;" parent="st9Nu50ljxXsiS8LjL6p-59" vertex="1" collapsed="1">
          <mxGeometry x="67" y="270" width="150" height="30" as="geometry">
            <mxRectangle x="30" y="270" width="140" height="190" as="alternateBounds" />
          </mxGeometry>
        </mxCell>
        <mxCell id="st9Nu50ljxXsiS8LjL6p-68" value="Ассинхронные слушатели исполнителей, которые ожидают их ивента" style="text;strokeColor=default;fillColor=default;align=left;verticalAlign=middle;spacingLeft=4;spacingRight=4;overflow=hidden;points=[[0,0.5],[1,0.5]];portConstraint=eastwest;rotatable=0;whiteSpace=wrap;html=1;" parent="st9Nu50ljxXsiS8LjL6p-67" vertex="1">
          <mxGeometry y="30" width="140" height="100" as="geometry" />
        </mxCell>
        <mxCell id="st9Nu50ljxXsiS8LjL6p-69" value="Event loop исполнителя, который проверяет на наличие нужных ивентов" style="text;strokeColor=default;fillColor=default;align=left;verticalAlign=middle;spacingLeft=4;spacingRight=4;overflow=hidden;points=[[0,0.5],[1,0.5]];portConstraint=eastwest;rotatable=0;whiteSpace=wrap;html=1;" parent="st9Nu50ljxXsiS8LjL6p-67" vertex="1">
          <mxGeometry y="130" width="140" height="60" as="geometry" />
        </mxCell>
        <mxCell id="st9Nu50ljxXsiS8LjL6p-74" value="отличия от шины - сложность процессов , по сути представляет из себя ёмкую шину обслуживающую очередь сообщений, где успешность и синхронность взаимодействия клиента с сообщением - необязательна" style="rounded=0;whiteSpace=wrap;html=1;" parent="st9Nu50ljxXsiS8LjL6p-59" vertex="1">
          <mxGeometry x="17" y="345" width="243" height="135" as="geometry" />
        </mxCell>
        <mxCell id="st9Nu50ljxXsiS8LjL6p-71" value="работа с очередью от лица брокера&amp;nbsp;" style="swimlane;fontStyle=0;childLayout=stackLayout;horizontal=1;startSize=30;horizontalStack=0;resizeParent=1;resizeParentMax=0;resizeLast=0;collapsible=1;marginBottom=0;whiteSpace=wrap;html=1;" parent="st9Nu50ljxXsiS8LjL6p-59" vertex="1" collapsed="1">
          <mxGeometry x="67" y="300" width="150" height="30" as="geometry">
            <mxRectangle x="67" y="300" width="140" height="230" as="alternateBounds" />
          </mxGeometry>
        </mxCell>
        <mxCell id="st9Nu50ljxXsiS8LjL6p-72" value="различные методы сортировок и хранения входящих данных. (кафка - топик=&amp;gt;партиция=&amp;gt; сообщения. Сommit log следит за структурой данных (структура очереди)" style="text;strokeColor=default;fillColor=default;align=left;verticalAlign=middle;spacingLeft=4;spacingRight=4;overflow=hidden;points=[[0,0.5],[1,0.5]];portConstraint=eastwest;rotatable=0;whiteSpace=wrap;html=1;" parent="st9Nu50ljxXsiS8LjL6p-71" vertex="1">
          <mxGeometry y="30" width="140" height="140" as="geometry" />
        </mxCell>
        <mxCell id="st9Nu50ljxXsiS8LjL6p-73" value="различные способы чистки этих же данных (по дате, по исполнению, и проч.)" style="text;strokeColor=default;fillColor=default;align=left;verticalAlign=middle;spacingLeft=4;spacingRight=4;overflow=hidden;points=[[0,0.5],[1,0.5]];portConstraint=eastwest;rotatable=0;whiteSpace=wrap;html=1;" parent="st9Nu50ljxXsiS8LjL6p-71" vertex="1">
          <mxGeometry y="170" width="140" height="60" as="geometry" />
        </mxCell>
        <mxCell id="FlyFxrjDseqyHdytKtgx-127" value="тестирование" style="swimlane;whiteSpace=wrap;html=1;labelBackgroundColor=#FFFFFF;fillStyle=solid;" parent="1" vertex="1" collapsed="1">
          <mxGeometry x="240" y="920" width="160" height="30" as="geometry">
            <mxRectangle x="240" y="920" width="180" height="880" as="alternateBounds" />
          </mxGeometry>
        </mxCell>
        <mxCell id="st9Nu50ljxXsiS8LjL6p-16" value="классы тестов" style="swimlane;fontStyle=0;childLayout=stackLayout;horizontal=1;startSize=30;horizontalStack=0;resizeParent=1;resizeParentMax=0;resizeLast=0;collapsible=1;marginBottom=0;whiteSpace=wrap;html=1;" parent="FlyFxrjDseqyHdytKtgx-127" vertex="1" collapsed="1">
          <mxGeometry x="10" y="70" width="160" height="30" as="geometry">
            <mxRectangle x="10" y="70" width="160" height="580" as="alternateBounds" />
          </mxGeometry>
        </mxCell>
        <mxCell id="st9Nu50ljxXsiS8LjL6p-17" value="по запуску кода (статич. (без запуска) динамическое)" style="text;strokeColor=default;fillColor=default;align=left;verticalAlign=middle;spacingLeft=4;spacingRight=4;overflow=hidden;points=[[0,0.5],[1,0.5]];portConstraint=eastwest;rotatable=0;whiteSpace=wrap;html=1;" parent="st9Nu50ljxXsiS8LjL6p-16" vertex="1">
          <mxGeometry y="30" width="160" height="70" as="geometry" />
        </mxCell>
        <mxCell id="st9Nu50ljxXsiS8LjL6p-18" value="по доступу к коду (белый ящик - есть доступ, серый - частич и черный - нет)" style="text;strokeColor=default;fillColor=default;align=left;verticalAlign=middle;spacingLeft=4;spacingRight=4;overflow=hidden;points=[[0,0.5],[1,0.5]];portConstraint=eastwest;rotatable=0;whiteSpace=wrap;html=1;" parent="st9Nu50ljxXsiS8LjL6p-16" vertex="1">
          <mxGeometry y="100" width="160" height="60" as="geometry" />
        </mxCell>
        <mxCell id="st9Nu50ljxXsiS8LjL6p-30" value="по уровню детализации" style="swimlane;fontStyle=0;childLayout=stackLayout;horizontal=1;startSize=30;horizontalStack=0;resizeParent=1;resizeParentMax=0;resizeLast=0;collapsible=1;marginBottom=0;whiteSpace=wrap;html=1;" parent="st9Nu50ljxXsiS8LjL6p-16" vertex="1">
          <mxGeometry y="160" width="160" height="150" as="geometry">
            <mxRectangle y="160" width="160" height="30" as="alternateBounds" />
          </mxGeometry>
        </mxCell>
        <mxCell id="st9Nu50ljxXsiS8LjL6p-31" value="модульное (тест 1 модуля)" style="text;strokeColor=default;fillColor=default;align=left;verticalAlign=middle;spacingLeft=4;spacingRight=4;overflow=hidden;points=[[0,0.5],[1,0.5]];portConstraint=eastwest;rotatable=0;whiteSpace=wrap;html=1;" parent="st9Nu50ljxXsiS8LjL6p-30" vertex="1">
          <mxGeometry y="30" width="160" height="30" as="geometry" />
        </mxCell>
        <mxCell id="st9Nu50ljxXsiS8LjL6p-32" value="Интеграционное (тест связи неск. модулей)" style="text;strokeColor=default;fillColor=default;align=left;verticalAlign=middle;spacingLeft=4;spacingRight=4;overflow=hidden;points=[[0,0.5],[1,0.5]];portConstraint=eastwest;rotatable=0;whiteSpace=wrap;html=1;" parent="st9Nu50ljxXsiS8LjL6p-30" vertex="1">
          <mxGeometry y="60" width="160" height="30" as="geometry" />
        </mxCell>
        <mxCell id="st9Nu50ljxXsiS8LjL6p-34" value="Системное (тест всей системы)" style="text;strokeColor=default;fillColor=default;align=left;verticalAlign=middle;spacingLeft=4;spacingRight=4;overflow=hidden;points=[[0,0.5],[1,0.5]];portConstraint=eastwest;rotatable=0;whiteSpace=wrap;html=1;" parent="st9Nu50ljxXsiS8LjL6p-30" vertex="1">
          <mxGeometry y="90" width="160" height="30" as="geometry" />
        </mxCell>
        <mxCell id="st9Nu50ljxXsiS8LjL6p-33" value="Приёмочное (тест перед сдачей проекта)" style="text;strokeColor=default;fillColor=default;align=left;verticalAlign=middle;spacingLeft=4;spacingRight=4;overflow=hidden;points=[[0,0.5],[1,0.5]];portConstraint=eastwest;rotatable=0;whiteSpace=wrap;html=1;" parent="st9Nu50ljxXsiS8LjL6p-30" vertex="1">
          <mxGeometry y="120" width="160" height="30" as="geometry" />
        </mxCell>
        <mxCell id="st9Nu50ljxXsiS8LjL6p-20" value="По автоматизации (ручное или авто)" style="text;strokeColor=default;fillColor=default;align=left;verticalAlign=middle;spacingLeft=4;spacingRight=4;overflow=hidden;points=[[0,0.5],[1,0.5]];portConstraint=eastwest;rotatable=0;whiteSpace=wrap;html=1;" parent="st9Nu50ljxXsiS8LjL6p-16" vertex="1">
          <mxGeometry y="310" width="160" height="40" as="geometry" />
        </mxCell>
        <mxCell id="st9Nu50ljxXsiS8LjL6p-21" value="По принципу работы ( позитивное - с корректн. данными , негативное с не кор. дан)" style="text;strokeColor=default;fillColor=default;align=left;verticalAlign=middle;spacingLeft=4;spacingRight=4;overflow=hidden;points=[[0,0.5],[1,0.5]];portConstraint=eastwest;rotatable=0;whiteSpace=wrap;html=1;" parent="st9Nu50ljxXsiS8LjL6p-16" vertex="1">
          <mxGeometry y="350" width="160" height="60" as="geometry" />
        </mxCell>
        <mxCell id="st9Nu50ljxXsiS8LjL6p-22" value="Инсталяционное (проверка на установку)" style="text;strokeColor=default;fillColor=default;align=left;verticalAlign=middle;spacingLeft=4;spacingRight=4;overflow=hidden;points=[[0,0.5],[1,0.5]];portConstraint=eastwest;rotatable=0;whiteSpace=wrap;html=1;" parent="st9Nu50ljxXsiS8LjL6p-16" vertex="1">
          <mxGeometry y="410" width="160" height="50" as="geometry" />
        </mxCell>
        <mxCell id="st9Nu50ljxXsiS8LjL6p-23" value="Интерфейсов (проверка соответствий интерф.)" style="text;strokeColor=default;fillColor=default;align=left;verticalAlign=middle;spacingLeft=4;spacingRight=4;overflow=hidden;points=[[0,0.5],[1,0.5]];portConstraint=eastwest;rotatable=0;whiteSpace=wrap;html=1;" parent="st9Nu50ljxXsiS8LjL6p-16" vertex="1">
          <mxGeometry y="460" width="160" height="60" as="geometry" />
        </mxCell>
        <mxCell id="st9Nu50ljxXsiS8LjL6p-24" value="Удобства пользования (юзабилити тесты)" style="text;strokeColor=default;fillColor=default;align=left;verticalAlign=middle;spacingLeft=4;spacingRight=4;overflow=hidden;points=[[0,0.5],[1,0.5]];portConstraint=eastwest;rotatable=0;whiteSpace=wrap;html=1;" parent="st9Nu50ljxXsiS8LjL6p-16" vertex="1">
          <mxGeometry y="520" width="160" height="30" as="geometry" />
        </mxCell>
        <mxCell id="fMl_8oeA1-R9pS056J6B-125" value="по&amp;nbsp; объектам тестирования (функ и не функц.)" style="text;strokeColor=default;fillColor=default;align=left;verticalAlign=middle;spacingLeft=4;spacingRight=4;overflow=hidden;points=[[0,0.5],[1,0.5]];portConstraint=eastwest;rotatable=0;whiteSpace=wrap;html=1;" vertex="1" parent="st9Nu50ljxXsiS8LjL6p-16">
          <mxGeometry y="550" width="160" height="30" as="geometry" />
        </mxCell>
        <mxCell id="st9Nu50ljxXsiS8LjL6p-2" value="виды тестов" style="swimlane;fontStyle=0;childLayout=stackLayout;horizontal=1;startSize=30;horizontalStack=0;resizeParent=1;resizeParentMax=0;resizeLast=0;collapsible=1;marginBottom=0;whiteSpace=wrap;html=1;" parent="FlyFxrjDseqyHdytKtgx-127" vertex="1" collapsed="1">
          <mxGeometry x="10" y="30" width="160" height="30" as="geometry">
            <mxRectangle x="10" y="30" width="140" height="740" as="alternateBounds" />
          </mxGeometry>
        </mxCell>
        <mxCell id="st9Nu50ljxXsiS8LjL6p-3" value="тест производительности (стабильность при работе)" style="text;strokeColor=default;fillColor=default;align=left;verticalAlign=middle;spacingLeft=4;spacingRight=4;overflow=hidden;points=[[0,0.5],[1,0.5]];portConstraint=eastwest;rotatable=0;whiteSpace=wrap;html=1;" parent="st9Nu50ljxXsiS8LjL6p-2" vertex="1">
          <mxGeometry y="30" width="140" height="70" as="geometry" />
        </mxCell>
        <mxCell id="st9Nu50ljxXsiS8LjL6p-6" value="нагрузочное тестирование (тест времени отклика и производительности)" style="text;strokeColor=default;fillColor=default;align=left;verticalAlign=middle;spacingLeft=4;spacingRight=4;overflow=hidden;points=[[0,0.5],[1,0.5]];portConstraint=eastwest;rotatable=0;whiteSpace=wrap;html=1;" parent="st9Nu50ljxXsiS8LjL6p-2" vertex="1">
          <mxGeometry y="100" width="140" height="60" as="geometry" />
        </mxCell>
        <mxCell id="st9Nu50ljxXsiS8LjL6p-11" value="тест масштабируемости (производительность сети под нагрузкой или без нее)" style="text;strokeColor=default;fillColor=default;align=left;verticalAlign=middle;spacingLeft=4;spacingRight=4;overflow=hidden;points=[[0,0.5],[1,0.5]];portConstraint=eastwest;rotatable=0;whiteSpace=wrap;html=1;" parent="st9Nu50ljxXsiS8LjL6p-2" vertex="1">
          <mxGeometry y="160" width="140" height="80" as="geometry" />
        </mxCell>
        <mxCell id="st9Nu50ljxXsiS8LjL6p-10" value="объемное тестирование (тесты с определенными объемами данных)" style="text;strokeColor=default;fillColor=default;align=left;verticalAlign=middle;spacingLeft=4;spacingRight=4;overflow=hidden;points=[[0,0.5],[1,0.5]];portConstraint=eastwest;rotatable=0;whiteSpace=wrap;html=1;" parent="st9Nu50ljxXsiS8LjL6p-2" vertex="1">
          <mxGeometry y="240" width="140" height="60" as="geometry" />
        </mxCell>
        <mxCell id="st9Nu50ljxXsiS8LjL6p-9" value="Стрессовое тестирование (запросами пока не упадет)" style="text;strokeColor=default;fillColor=default;align=left;verticalAlign=middle;spacingLeft=4;spacingRight=4;overflow=hidden;points=[[0,0.5],[1,0.5]];portConstraint=eastwest;rotatable=0;whiteSpace=wrap;html=1;" parent="st9Nu50ljxXsiS8LjL6p-2" vertex="1">
          <mxGeometry y="300" width="140" height="60" as="geometry" />
        </mxCell>
        <mxCell id="st9Nu50ljxXsiS8LjL6p-8" value="Инсталяционное (проверка на установку)" style="text;strokeColor=default;fillColor=default;align=left;verticalAlign=middle;spacingLeft=4;spacingRight=4;overflow=hidden;points=[[0,0.5],[1,0.5]];portConstraint=eastwest;rotatable=0;whiteSpace=wrap;html=1;" parent="st9Nu50ljxXsiS8LjL6p-2" vertex="1">
          <mxGeometry y="360" width="140" height="50" as="geometry" />
        </mxCell>
        <mxCell id="st9Nu50ljxXsiS8LjL6p-7" value="Интерфейсов (проверка соответствий интерф.)" style="text;strokeColor=default;fillColor=default;align=left;verticalAlign=middle;spacingLeft=4;spacingRight=4;overflow=hidden;points=[[0,0.5],[1,0.5]];portConstraint=eastwest;rotatable=0;whiteSpace=wrap;html=1;" parent="st9Nu50ljxXsiS8LjL6p-2" vertex="1">
          <mxGeometry y="410" width="140" height="60" as="geometry" />
        </mxCell>
        <mxCell id="st9Nu50ljxXsiS8LjL6p-14" value="Удобства пользования (юзабилити тесты)" style="text;strokeColor=default;fillColor=default;align=left;verticalAlign=middle;spacingLeft=4;spacingRight=4;overflow=hidden;points=[[0,0.5],[1,0.5]];portConstraint=eastwest;rotatable=0;whiteSpace=wrap;html=1;" parent="st9Nu50ljxXsiS8LjL6p-2" vertex="1">
          <mxGeometry y="470" width="140" height="30" as="geometry" />
        </mxCell>
        <mxCell id="st9Nu50ljxXsiS8LjL6p-13" value="Локализаций (она и есть локализация)" style="text;strokeColor=default;fillColor=default;align=left;verticalAlign=middle;spacingLeft=4;spacingRight=4;overflow=hidden;points=[[0,0.5],[1,0.5]];portConstraint=eastwest;rotatable=0;whiteSpace=wrap;html=1;" parent="st9Nu50ljxXsiS8LjL6p-2" vertex="1">
          <mxGeometry y="500" width="140" height="30" as="geometry" />
        </mxCell>
        <mxCell id="st9Nu50ljxXsiS8LjL6p-12" value="Безопасности&amp;nbsp;" style="text;strokeColor=default;fillColor=default;align=left;verticalAlign=middle;spacingLeft=4;spacingRight=4;overflow=hidden;points=[[0,0.5],[1,0.5]];portConstraint=eastwest;rotatable=0;whiteSpace=wrap;html=1;" parent="st9Nu50ljxXsiS8LjL6p-2" vertex="1">
          <mxGeometry y="530" width="140" height="30" as="geometry" />
        </mxCell>
        <mxCell id="st9Nu50ljxXsiS8LjL6p-4" value="Надежности (определенная нагрузка долгое время)" style="text;strokeColor=default;fillColor=default;align=left;verticalAlign=middle;spacingLeft=4;spacingRight=4;overflow=hidden;points=[[0,0.5],[1,0.5]];portConstraint=eastwest;rotatable=0;whiteSpace=wrap;html=1;" parent="st9Nu50ljxXsiS8LjL6p-2" vertex="1">
          <mxGeometry y="560" width="140" height="60" as="geometry" />
        </mxCell>
        <mxCell id="st9Nu50ljxXsiS8LjL6p-5" value="Регрессионное (тест старого функционала после внесения нового)" style="text;strokeColor=default;fillColor=default;align=left;verticalAlign=middle;spacingLeft=4;spacingRight=4;overflow=hidden;points=[[0,0.5],[1,0.5]];portConstraint=eastwest;rotatable=0;whiteSpace=wrap;html=1;" parent="st9Nu50ljxXsiS8LjL6p-2" vertex="1">
          <mxGeometry y="620" width="140" height="60" as="geometry" />
        </mxCell>
        <mxCell id="st9Nu50ljxXsiS8LjL6p-15" value="повторное (тесты старых багов)" style="text;strokeColor=default;fillColor=default;align=left;verticalAlign=middle;spacingLeft=4;spacingRight=4;overflow=hidden;points=[[0,0.5],[1,0.5]];portConstraint=eastwest;rotatable=0;whiteSpace=wrap;html=1;" parent="st9Nu50ljxXsiS8LjL6p-2" vertex="1">
          <mxGeometry y="680" width="140" height="60" as="geometry" />
        </mxCell>
        <mxCell id="fMl_8oeA1-R9pS056J6B-126" value="рел/не рел" style="swimlane;fontStyle=0;childLayout=stackLayout;horizontal=1;startSize=30;horizontalStack=0;resizeParent=1;resizeParentMax=0;resizeLast=0;collapsible=1;marginBottom=0;whiteSpace=wrap;html=1;" vertex="1" collapsed="1" parent="1">
          <mxGeometry x="520" y="960" width="100" height="30" as="geometry">
            <mxRectangle x="520" y="960" width="140" height="120" as="alternateBounds" />
          </mxGeometry>
        </mxCell>
        <mxCell id="fMl_8oeA1-R9pS056J6B-127" value="Item 1" style="text;strokeColor=none;fillColor=none;align=left;verticalAlign=middle;spacingLeft=4;spacingRight=4;overflow=hidden;points=[[0,0.5],[1,0.5]];portConstraint=eastwest;rotatable=0;whiteSpace=wrap;html=1;" vertex="1" parent="fMl_8oeA1-R9pS056J6B-126">
          <mxGeometry y="30" width="140" height="30" as="geometry" />
        </mxCell>
        <mxCell id="fMl_8oeA1-R9pS056J6B-128" value="Item 2" style="text;strokeColor=none;fillColor=none;align=left;verticalAlign=middle;spacingLeft=4;spacingRight=4;overflow=hidden;points=[[0,0.5],[1,0.5]];portConstraint=eastwest;rotatable=0;whiteSpace=wrap;html=1;" vertex="1" parent="fMl_8oeA1-R9pS056J6B-126">
          <mxGeometry y="60" width="140" height="30" as="geometry" />
        </mxCell>
        <mxCell id="fMl_8oeA1-R9pS056J6B-129" value="Item 3" style="text;strokeColor=none;fillColor=none;align=left;verticalAlign=middle;spacingLeft=4;spacingRight=4;overflow=hidden;points=[[0,0.5],[1,0.5]];portConstraint=eastwest;rotatable=0;whiteSpace=wrap;html=1;" vertex="1" parent="fMl_8oeA1-R9pS056J6B-126">
          <mxGeometry y="90" width="140" height="30" as="geometry" />
        </mxCell>
        <mxCell id="FlyFxrjDseqyHdytKtgx-105" value="моделирование БП" style="swimlane;whiteSpace=wrap;html=1;swimlaneFillColor=default;" parent="1" vertex="1" collapsed="1">
          <mxGeometry x="400" y="840" width="170" height="30" as="geometry">
            <mxRectangle x="400" y="840" width="180" height="710" as="alternateBounds" />
          </mxGeometry>
        </mxCell>
        <mxCell id="fMl_8oeA1-R9pS056J6B-116" value="v - модель" style="swimlane;fontStyle=0;childLayout=stackLayout;horizontal=1;startSize=30;horizontalStack=0;resizeParent=1;resizeParentMax=0;resizeLast=0;collapsible=1;marginBottom=0;whiteSpace=wrap;html=1;" vertex="1" collapsed="1" parent="FlyFxrjDseqyHdytKtgx-105">
          <mxGeometry x="15" y="120" width="145" height="30" as="geometry">
            <mxRectangle x="15" y="120" width="145" height="60" as="alternateBounds" />
          </mxGeometry>
        </mxCell>
        <mxCell id="fMl_8oeA1-R9pS056J6B-117" value="взаимодействие бизнес и сис аналитика" style="text;strokeColor=none;fillColor=none;align=left;verticalAlign=middle;spacingLeft=4;spacingRight=4;overflow=hidden;points=[[0,0.5],[1,0.5]];portConstraint=eastwest;rotatable=0;whiteSpace=wrap;html=1;" vertex="1" parent="fMl_8oeA1-R9pS056J6B-116">
          <mxGeometry y="30" width="145" height="30" as="geometry" />
        </mxCell>
        <mxCell id="FlyFxrjDseqyHdytKtgx-122" value="модели&amp;nbsp;" style="swimlane;fontStyle=0;childLayout=stackLayout;horizontal=1;startSize=30;horizontalStack=0;resizeParent=1;resizeParentMax=0;resizeLast=0;collapsible=1;marginBottom=0;whiteSpace=wrap;html=1;" parent="FlyFxrjDseqyHdytKtgx-105" vertex="1" collapsed="1">
          <mxGeometry x="14" y="80" width="146" height="30" as="geometry">
            <mxRectangle x="14" y="80" width="146" height="120" as="alternateBounds" />
          </mxGeometry>
        </mxCell>
        <mxCell id="FlyFxrjDseqyHdytKtgx-123" value="as is" style="text;strokeColor=default;fillColor=default;align=left;verticalAlign=middle;spacingLeft=4;spacingRight=4;overflow=hidden;points=[[0,0.5],[1,0.5]];portConstraint=eastwest;rotatable=0;whiteSpace=wrap;html=1;" parent="FlyFxrjDseqyHdytKtgx-122" vertex="1">
          <mxGeometry y="30" width="146" height="30" as="geometry" />
        </mxCell>
        <mxCell id="FlyFxrjDseqyHdytKtgx-124" value="to be" style="text;strokeColor=default;fillColor=default;align=left;verticalAlign=middle;spacingLeft=4;spacingRight=4;overflow=hidden;points=[[0,0.5],[1,0.5]];portConstraint=eastwest;rotatable=0;whiteSpace=wrap;html=1;" parent="FlyFxrjDseqyHdytKtgx-122" vertex="1">
          <mxGeometry y="60" width="146" height="30" as="geometry" />
        </mxCell>
        <mxCell id="FlyFxrjDseqyHdytKtgx-125" value="user story" style="text;strokeColor=default;fillColor=default;align=left;verticalAlign=middle;spacingLeft=4;spacingRight=4;overflow=hidden;points=[[0,0.5],[1,0.5]];portConstraint=eastwest;rotatable=0;whiteSpace=wrap;html=1;" parent="FlyFxrjDseqyHdytKtgx-122" vertex="1">
          <mxGeometry y="90" width="146" height="30" as="geometry" />
        </mxCell>
        <mxCell id="fMl_8oeA1-R9pS056J6B-120" value="виды моделирования" style="swimlane;fontStyle=0;childLayout=stackLayout;horizontal=1;startSize=30;horizontalStack=0;resizeParent=1;resizeParentMax=0;resizeLast=0;collapsible=1;marginBottom=0;whiteSpace=wrap;html=1;" vertex="1" parent="FlyFxrjDseqyHdytKtgx-105">
          <mxGeometry x="15" y="160" width="137" height="120" as="geometry">
            <mxRectangle x="15" y="160" width="145" height="30" as="alternateBounds" />
          </mxGeometry>
        </mxCell>
        <mxCell id="fMl_8oeA1-R9pS056J6B-121" value="объекты" style="text;strokeColor=none;fillColor=none;align=left;verticalAlign=middle;spacingLeft=4;spacingRight=4;overflow=hidden;points=[[0,0.5],[1,0.5]];portConstraint=eastwest;rotatable=0;whiteSpace=wrap;html=1;" vertex="1" parent="fMl_8oeA1-R9pS056J6B-120">
          <mxGeometry y="30" width="137" height="30" as="geometry" />
        </mxCell>
        <mxCell id="fMl_8oeA1-R9pS056J6B-122" value="функциональное" style="text;strokeColor=none;fillColor=none;align=left;verticalAlign=middle;spacingLeft=4;spacingRight=4;overflow=hidden;points=[[0,0.5],[1,0.5]];portConstraint=eastwest;rotatable=0;whiteSpace=wrap;html=1;" vertex="1" parent="fMl_8oeA1-R9pS056J6B-120">
          <mxGeometry y="60" width="137" height="30" as="geometry" />
        </mxCell>
        <mxCell id="fMl_8oeA1-R9pS056J6B-123" value="имитационное" style="text;strokeColor=none;fillColor=none;align=left;verticalAlign=middle;spacingLeft=4;spacingRight=4;overflow=hidden;points=[[0,0.5],[1,0.5]];portConstraint=eastwest;rotatable=0;whiteSpace=wrap;html=1;" vertex="1" parent="fMl_8oeA1-R9pS056J6B-120">
          <mxGeometry y="90" width="137" height="30" as="geometry" />
        </mxCell>
        <mxCell id="FlyFxrjDseqyHdytKtgx-106" value="основные нотации" style="swimlane;fontStyle=0;childLayout=stackLayout;horizontal=1;startSize=30;horizontalStack=0;resizeParent=1;resizeParentMax=0;resizeLast=0;collapsible=1;marginBottom=0;whiteSpace=wrap;html=1;" parent="FlyFxrjDseqyHdytKtgx-105" vertex="1" collapsed="1">
          <mxGeometry x="14" y="40" width="146" height="30" as="geometry">
            <mxRectangle x="14" y="40" width="146" height="610" as="alternateBounds" />
          </mxGeometry>
        </mxCell>
        <mxCell id="FlyFxrjDseqyHdytKtgx-107" value="bpmn" style="text;strokeColor=#b85450;fillColor=#f8cecc;align=left;verticalAlign=middle;spacingLeft=4;spacingRight=4;overflow=hidden;points=[[0,0.5],[1,0.5]];portConstraint=eastwest;rotatable=0;whiteSpace=wrap;html=1;" parent="FlyFxrjDseqyHdytKtgx-106" vertex="1">
          <mxGeometry y="30" width="146" height="30" as="geometry" />
        </mxCell>
        <mxCell id="FlyFxrjDseqyHdytKtgx-108" value="блоксхема" style="text;strokeColor=default;fillColor=default;align=left;verticalAlign=middle;spacingLeft=4;spacingRight=4;overflow=hidden;points=[[0,0.5],[1,0.5]];portConstraint=eastwest;rotatable=0;whiteSpace=wrap;html=1;" parent="FlyFxrjDseqyHdytKtgx-106" vertex="1">
          <mxGeometry y="60" width="146" height="30" as="geometry" />
        </mxCell>
        <mxCell id="FlyFxrjDseqyHdytKtgx-111" value="EPC" style="swimlane;fontStyle=0;childLayout=stackLayout;horizontal=1;startSize=30;horizontalStack=0;resizeParent=1;resizeParentMax=0;resizeLast=0;collapsible=1;marginBottom=0;whiteSpace=wrap;html=1;" parent="FlyFxrjDseqyHdytKtgx-106" vertex="1" collapsed="1">
          <mxGeometry y="90" width="146" height="30" as="geometry">
            <mxRectangle y="90" width="146" height="90" as="alternateBounds" />
          </mxGeometry>
        </mxCell>
        <mxCell id="FlyFxrjDseqyHdytKtgx-112" value="событийная цепочка процессов" style="text;strokeColor=default;fillColor=default;align=left;verticalAlign=middle;spacingLeft=4;spacingRight=4;overflow=hidden;points=[[0,0.5],[1,0.5]];portConstraint=eastwest;rotatable=0;whiteSpace=wrap;html=1;" parent="FlyFxrjDseqyHdytKtgx-111" vertex="1">
          <mxGeometry y="30" width="146" height="30" as="geometry" />
        </mxCell>
        <mxCell id="FlyFxrjDseqyHdytKtgx-113" value="та же блок схема только с документами" style="text;strokeColor=default;fillColor=default;align=left;verticalAlign=middle;spacingLeft=4;spacingRight=4;overflow=hidden;points=[[0,0.5],[1,0.5]];portConstraint=eastwest;rotatable=0;whiteSpace=wrap;html=1;" parent="FlyFxrjDseqyHdytKtgx-111" vertex="1">
          <mxGeometry y="60" width="146" height="30" as="geometry" />
        </mxCell>
        <mxCell id="FlyFxrjDseqyHdytKtgx-115" value="uml" style="swimlane;fontStyle=0;childLayout=stackLayout;horizontal=1;startSize=30;horizontalStack=0;resizeParent=1;resizeParentMax=0;resizeLast=0;collapsible=1;marginBottom=0;whiteSpace=wrap;html=1;" parent="FlyFxrjDseqyHdytKtgx-106" vertex="1">
          <mxGeometry y="120" width="146" height="460" as="geometry">
            <mxRectangle y="120" width="146" height="30" as="alternateBounds" />
          </mxGeometry>
        </mxCell>
        <mxCell id="FlyFxrjDseqyHdytKtgx-116" value="диаграммы классов (структура системы, объекты и классы)" style="text;strokeColor=default;fillColor=default;align=left;verticalAlign=middle;spacingLeft=4;spacingRight=4;overflow=hidden;points=[[0,0.5],[1,0.5]];portConstraint=eastwest;rotatable=0;whiteSpace=wrap;html=1;" parent="FlyFxrjDseqyHdytKtgx-115" vertex="1">
          <mxGeometry y="30" width="146" height="60" as="geometry" />
        </mxCell>
        <mxCell id="FlyFxrjDseqyHdytKtgx-117" value="компонентов (компоненты ПО и их связь между собой)" style="text;strokeColor=default;fillColor=default;align=left;verticalAlign=middle;spacingLeft=4;spacingRight=4;overflow=hidden;points=[[0,0.5],[1,0.5]];portConstraint=eastwest;rotatable=0;whiteSpace=wrap;html=1;" parent="FlyFxrjDseqyHdytKtgx-115" vertex="1">
          <mxGeometry y="90" width="146" height="50" as="geometry" />
        </mxCell>
        <mxCell id="FlyFxrjDseqyHdytKtgx-119" value="активностей (последовательность действий актеров и их результаты)" style="text;strokeColor=default;fillColor=default;align=left;verticalAlign=middle;spacingLeft=4;spacingRight=4;overflow=hidden;points=[[0,0.5],[1,0.5]];portConstraint=eastwest;rotatable=0;whiteSpace=wrap;html=1;" parent="FlyFxrjDseqyHdytKtgx-115" vertex="1">
          <mxGeometry y="140" width="146" height="80" as="geometry" />
        </mxCell>
        <mxCell id="FlyFxrjDseqyHdytKtgx-121" value="сценариев использования (взаимодействие агентов (пользователей) с системой" style="text;strokeColor=default;fillColor=default;align=left;verticalAlign=middle;spacingLeft=4;spacingRight=4;overflow=hidden;points=[[0,0.5],[1,0.5]];portConstraint=eastwest;rotatable=0;whiteSpace=wrap;html=1;" parent="FlyFxrjDseqyHdytKtgx-115" vertex="1">
          <mxGeometry y="220" width="146" height="100" as="geometry" />
        </mxCell>
        <mxCell id="FlyFxrjDseqyHdytKtgx-120" value="последовательностей (исполнение сценариев последовательных действий актеров системы)" style="text;strokeColor=default;fillColor=default;align=left;verticalAlign=middle;spacingLeft=4;spacingRight=4;overflow=hidden;points=[[0,0.5],[1,0.5]];portConstraint=eastwest;rotatable=0;whiteSpace=wrap;html=1;" parent="FlyFxrjDseqyHdytKtgx-115" vertex="1">
          <mxGeometry y="320" width="146" height="110" as="geometry" />
        </mxCell>
        <mxCell id="FlyFxrjDseqyHdytKtgx-118" value="объектов (состояние и связь объектов)" style="text;strokeColor=default;fillColor=default;align=left;verticalAlign=middle;spacingLeft=4;spacingRight=4;overflow=hidden;points=[[0,0.5],[1,0.5]];portConstraint=eastwest;rotatable=0;whiteSpace=wrap;html=1;" parent="FlyFxrjDseqyHdytKtgx-115" vertex="1">
          <mxGeometry y="430" width="146" height="30" as="geometry" />
        </mxCell>
        <mxCell id="FlyFxrjDseqyHdytKtgx-109" value="idef (erWin)" style="text;strokeColor=#b85450;fillColor=#f8cecc;align=left;verticalAlign=middle;spacingLeft=4;spacingRight=4;overflow=hidden;points=[[0,0.5],[1,0.5]];portConstraint=eastwest;rotatable=0;whiteSpace=wrap;html=1;" parent="FlyFxrjDseqyHdytKtgx-106" vertex="1">
          <mxGeometry y="580" width="146" height="30" as="geometry" />
        </mxCell>
      </root>
    </mxGraphModel>
  </diagram>
</mxfile>
